<?xml version="1.0" encoding="UTF-8" standalone="no"?>
<svg
   xmlns:dc="http://purl.org/dc/elements/1.1/"
   xmlns:cc="http://creativecommons.org/ns#"
   xmlns:rdf="http://www.w3.org/1999/02/22-rdf-syntax-ns#"
   xmlns:svg="http://www.w3.org/2000/svg"
   xmlns="http://www.w3.org/2000/svg"
   xmlns:sodipodi="http://sodipodi.sourceforge.net/DTD/sodipodi-0.dtd"
   xmlns:inkscape="http://www.inkscape.org/namespaces/inkscape"
   inkscape:version="1.0 (4035a4fb49, 2020-05-01)"
   sodipodi:docname="logo.svg"
   viewBox="0 0 409.60001 633.59998"
   height="633.59998"
   width="409.60001"
   id="svg10"
   version="1.1">
  <metadata
     id="metadata16">
    <rdf:RDF>
      <cc:Work
         rdf:about="">
        <dc:format>image/svg+xml</dc:format>
        <dc:type
           rdf:resource="http://purl.org/dc/dcmitype/StillImage" />
      </cc:Work>
    </rdf:RDF>
  </metadata>
  <defs
     id="defs14" />
  <sodipodi:namedview
     inkscape:current-layer="g18"
     inkscape:window-maximized="1"
     inkscape:window-y="-8"
     inkscape:window-x="1272"
     inkscape:cy="249.22394"
     inkscape:cx="158.87407"
     inkscape:zoom="3.7230245"
     inkscape:snap-global="false"
     showgrid="false"
     id="namedview12"
     inkscape:window-height="1017"
     inkscape:window-width="1920"
     inkscape:pageshadow="2"
     inkscape:pageopacity="0"
     guidetolerance="10"
     gridtolerance="10"
     objecttolerance="10"
     borderopacity="1"
     bordercolor="#666666"
     pagecolor="#ffffff" />
  <g
     id="g18"
     inkscape:label="Image"
     inkscape:groupmode="layer">
    <g
       transform="translate(8.3568499,-6.077699)"
       id="g26">
      <path
         id="path38"
         d="m 48.640004,626.09526 v -6.06356 l 1.999563,-1.03402 c 1.720142,-0.88951 2.125597,-0.90798 2.901466,-0.13211 0.496045,0.49605 1.058746,1.88996 1.250445,3.09758 0.287737,1.81262 -0.104365,2.89352 -2.247508,6.19568 -1.427829,2.2 -2.890333,4 -3.250009,4 -0.399261,0 -0.653957,-2.36158 -0.653957,-6.06357 z M 317.21261,611.02791 c -4.56333,-4.92895 -10.24683,-13.12739 -17.65535,-25.46787 -5.94483,-9.90237 -6.20719,-10.56356 -5.4395,-13.7082 0.365,-1.49507 6.4e-4,-2.16073 -2.52563,-4.61613 -1.62367,-1.57802 -2.95212,-3.33081 -2.95212,-3.89508 0,-2.70896 3.35121,-5.4218 6.69763,-5.4218 1.79173,0 4.17361,3.09812 4.18237,5.44 0.003,0.704 0.57547,2.216 1.27299,3.36 1.77619,2.91316 4.34586,2.79643 10.56701,-0.48 2.67345,-1.408 5.43709,-2.56 6.14143,-2.56 1.00085,0 1.98719,1.50307 4.51478,6.88 1.77878,3.784 3.27681,7.74299 3.32897,8.79775 0.0897,1.8144 -0.0604,1.93602 -2.78518,2.25661 -1.584,0.18636 -3.24,0.56437 -3.68,0.84001 -2.64593,1.65757 1.80966,11.25461 6.30419,13.57883 2.20247,1.13893 3.15437,0.79486 4.54604,-1.64322 1.40345,-2.45871 2.33753,-2.4064 4.93796,0.27656 2.4895,2.56852 3.08519,1.33184 -5.98845,12.4324 -3.49815,4.27959 -6.70713,7.78106 -7.13107,7.78106 -0.42393,0 -2.37517,-1.73292 -4.33607,-3.85092 z M 35.255564,582.07883 c -0.648424,-1.496 -2.510189,-5.70914 -4.137256,-9.36253 -2.883351,-6.47423 -3.557904,-9.03747 -2.37834,-9.03747 0.31898,0 1.596299,-1.41466 2.838484,-3.14369 1.242187,-1.72904 2.838809,-3.32787 3.54805,-3.55298 2.926006,-0.92868 7.521645,3.5582 6.082276,5.93833 -0.358664,0.59309 -1.818845,1.65434 -3.244847,2.35834 -3.839,1.89527 -4.683928,2.81592 -4.683928,5.10372 0,2.80399 2.268272,5.98388 6.097035,8.54744 1.750631,1.17214 3.255106,2.32456 3.343276,2.56093 0.1629,0.43672 -4.862765,3.31294 -5.783054,3.30969 -0.27651,-10e-4 -1.033273,-1.22578 -1.681696,-2.72178 z m 53.355352,-19.33091 c -2.152768,-2.15276 -2.023865,-4.38245 0.359623,-6.22041 5.64521,-4.35316 5.749466,-4.47031 5.749466,-6.46073 0,-1.59793 -0.799796,-2.74719 -4.16,-5.97769 -2.288001,-2.19968 -4.160001,-4.2457 -4.160001,-4.5467 0,-1.21073 12.392903,-12.34356 13.740666,-12.34356 0.53309,0 1.47665,1.08 2.09679,2.4 0.67095,1.42815 1.65092,2.47512 2.42004,2.58551 2.91482,0.41836 10.25788,-8.22438 9.79,-11.52278 -0.16099,-1.13488 -0.68191,-1.50829 -2.32419,-1.66601 -1.16419,-0.11181 -2.27461,-0.61482 -2.46762,-1.11779 -0.88918,-2.31715 10.11561,-16.27893 12.83118,-16.27893 1.23513,0 2.69865,1.50676 4.26089,4.38677 0.69611,1.28328 1.59179,2.79067 1.99041,3.34976 0.59501,0.83456 -1.66042,4.67283 -12.59847,21.44 -22.261251,34.12479 -21.844521,33.54347 -24.046319,33.54347 -1.176224,0 -2.515853,-0.60429 -3.482465,-1.57091 z m 273.353174,-5.01534 c -3.68273,-5.28829 -8.04408,-12.84368 -8.04408,-13.9352 0,-0.61056 1.57377,-2.54845 3.49728,-4.30643 3.41801,-3.12386 7.89397,-5.25212 11.04582,-5.25212 2.34303,0 4.6569,2.71894 4.6569,5.47216 0,1.28169 0.47985,3.14268 1.06634,4.13553 l 1.06635,1.80517 -5.09744,7.2106 c -2.80359,3.96583 -5.37145,7.29013 -5.70635,7.38732 -0.33489,0.0972 -1.45306,-1.03547 -2.48482,-2.51703 z m 18.87407,-24.88024 c -2.68943,-2.88677 -1.06179,-6.04072 3.88176,-7.52184 1.43259,-0.42921 2.75378,-0.63131 2.93598,-0.44911 0.38036,0.38035 -4.02791,8.47628 -4.91332,9.0235 -0.32245,0.19928 -1.17943,-0.27437 -1.90442,-1.05255 z M 54.180169,515.35383 c -4.013883,-1.99098 -4.568374,-2.48315 -5.856979,-5.19868 -1.602084,-3.37614 -0.876966,-5.05414 3.042304,-7.04018 5.579536,-2.82736 6.249607,-4.82904 2.77851,-8.30014 -2.109863,-2.10986 -4.11181,-2.67006 -6.40167,-1.79136 -0.551297,0.21155 -1.89296,1.94126 -2.981475,3.84378 -3.372634,5.89475 -6.016912,6.10837 -10.194314,0.82356 -1.411598,-1.78581 -2.566542,-3.58597 -2.566542,-4.00036 0,-0.4144 3.168,-3.91162 7.04,-7.77162 3.872,-3.85999 7.04,-7.53325 7.04,-8.1628 0,-0.65363 -0.754977,-1.44262 -1.76,-1.83928 -5.100535,-2.0131 -5.132244,-2.91405 -0.269006,-7.6434 5.357441,-5.20995 8.517837,-5.84092 9.389007,-1.87452 0.242384,1.10357 0.819547,2.15187 1.282585,2.32955 2.10716,0.8086 7.888758,-3.7586 13.187297,-10.41737 1.782182,-2.2397 3.719532,-4.06948 4.305222,-4.06617 1.839411,0.0104 7.805267,3.81847 8.55296,5.45948 0.861472,1.89072 -0.268397,3.41208 -4.157254,5.59774 -4.474343,2.51472 -5.00137,5.8381 -1.377824,8.68838 3.36208,2.64461 6.243309,1.6712 9.17991,-3.10137 1.751469,-2.84651 2.224173,-3.21024 4.172084,-3.21024 3.604454,0 8.695021,5.54959 8.695021,9.47906 0,1.57757 -5.334202,8.57611 -9.48233,12.44094 -3.767744,3.51043 -5.649203,3.89429 -6.273728,1.28 -0.514215,-2.15255 -1.412212,-3.36 -2.498893,-3.36 -1.421997,0 -8.49728,5.72218 -9.918356,8.02154 -1.837068,2.97243 -1.456921,4.20079 1.56201,5.04727 1.379789,0.38688 2.622989,1.04627 2.762669,1.46531 0.26272,0.78816 -2.411712,4.00763 -9.059584,10.90588 -4.391731,4.55714 -5.369473,4.78691 -10.191624,2.395 z m 254.701901,-1.76366 c -0.749,-0.55531 -1.40155,-2.18914 -1.74125,-4.35974 -0.69119,-4.41652 -2.1508,-5.7116 -6.43721,-5.7116 -3.52373,0 -6.96324,1.49249 -10.40635,4.51559 -2.03693,1.78844 -2.26666,1.85354 -2.80926,0.79607 -0.32501,-0.63341 -0.76541,-1.88454 -0.97868,-2.78029 -0.55652,-2.33746 -4.95277,-8.9304 -7.79651,-11.69221 -2.95799,-2.87276 -4.72556,-2.99017 -6.6116,-0.43916 -0.78074,1.056 -1.78445,1.92 -2.23047,1.92 -0.98294,0 -5.09499,-4.20772 -6.18532,-6.32921 -2.69404,-5.24189 -2.00486,-7.75079 2.1291,-7.75079 1.50122,0 3.07509,-0.3456 3.49749,-0.768 1.99255,-1.99255 -0.15471,-7.8445 -5.43313,-14.80693 -1.55736,-2.05423 -2.74321,-4.18043 -2.63522,-4.72491 0.22509,-1.1349 35.23371,-18.11081 37.28859,-18.0815 2.44834,0.0349 9.94776,11.9359 9.94776,15.78629 0,2.53135 -1.0583,3.39505 -4.16,3.39505 -1.4432,0 -2.9696,0.3456 -3.392,0.768 -3.03209,3.03209 3.29867,14.61541 7.9708,14.58408 0.64966,-0.004 1.83185,-1.01236 2.62708,-2.24 0.79524,-1.22764 1.8364,-2.23208 2.31369,-2.23208 2.67107,0 8.5237,7.79308 10.45582,13.92247 1.06824,3.38886 1.06405,3.51962 -0.14107,4.40082 -0.68311,0.4995 -3.13948,1.47328 -5.45862,2.16395 -7.99921,2.38227 -8.97149,5.72678 -3.36966,11.59133 1.65032,1.72772 2.16109,2.77169 2.00433,4.0967 -0.38057,3.21674 -5.94207,5.83418 -8.44831,3.97607 z m -152.1414,-58.25934 c -3.09188,-1.60916 -5.837,-5.8724 -5.24326,-8.1429 0.18304,-0.69991 2.05282,-2.76265 4.15508,-4.58387 3.47333,-3.009 3.78791,-3.49089 3.44559,-5.27827 -0.44987,-2.349 -3.07938,-4.84696 -5.1022,-4.84696 -1.67109,0 -3.59918,1.89909 -5.19819,5.12 -3.03054,6.10447 -6.56451,6.00555 -10.25217,-0.28699 l -1.63387,-2.78797 2.88438,-4.75096 c 2.94103,-4.84427 9.14545,-11.37408 10.8073,-11.37408 1.18346,0 2.07229,1.14838 2.60062,3.36 0.82366,3.44789 4.01537,1.88213 8.45394,-4.14723 3.53466,-4.8015 3.64755,-6.5307 0.5119,-7.84086 -2.07263,-0.866 -2.26495,-1.14661 -1.87011,-2.72858 0.24205,-0.96983 1.051,-2.77133 1.79766,-4.00333 1.46471,-2.41681 9.3271,-10.87999 10.10763,-10.87999 0.26123,0 1.47356,1.38997 2.69407,3.08883 2.6088,3.63125 5.49283,5.12838 7.82885,4.06403 0.90256,-0.41124 2.34795,-2.28667 3.45971,-4.48906 2.03727,-4.03579 3.26258,-4.96591 5.18595,-3.93656 3.33334,1.78395 4.11672,5.69986 1.49695,7.48288 -4.13177,2.81208 -5.35049,4.47007 -5.35049,7.27896 0,2.35175 0.34679,3.02769 2.63904,5.14389 l 2.63904,2.43635 -5.00343,7.80139 c -4.79094,7.47005 -5.04226,7.74294 -5.91711,6.42534 -0.50252,-0.75683 -1.4851,-1.37606 -2.18351,-1.37606 -3.17303,0 -10.33928,8.28119 -9.9619,11.51179 0.1391,1.19079 0.72774,1.76715 2.26787,2.22057 1.20478,0.35468 2.07007,1.02792 2.05641,1.6 -0.0665,2.78152 -11.46414,15.38764 -13.91259,15.38764 -0.32037,0 -1.8518,-0.6606 -3.40316,-1.468 z m -89.799181,-4.63566 c -3.943456,-1.9554 -5.137786,-3.03725 -6.483291,-5.87268 -1.461649,-3.0802 -0.568597,-4.82076 3.542279,-6.90389 3.652007,-1.85062 4.936474,-3.99672 3.759642,-6.28167 -1.324102,-2.5709 -3.305472,-4.25487 -5.488067,-4.66432 -2.654775,-0.49804 -4.149682,0.68332 -6.346496,5.01536 -1.007093,1.98594 -2.069388,3.16297 -3.084636,3.41778 -1.815757,0.45573 -4.200916,-0.17134 -4.200916,-1.10443 0,-0.78909 39.031431,-44.70248 39.7328,-44.70248 0.851629,0 3.147201,3.31633 3.147201,4.54664 0,0.72414 -1.355354,2.04103 -3.536935,3.43657 -5.083546,3.25191 -5.895891,6.14697 -2.594976,9.24802 3.567021,3.35104 8.761197,2.04687 10.314912,-2.5899 1.826938,-5.45213 8.231434,-3.86531 12.548034,3.10897 1.65444,2.67305 1.21289,3.78141 -2.71087,6.80487 -3.59903,2.77323 -7.712984,7.89892 -9.204063,11.46757 -0.931533,2.22947 -0.914445,2.43891 0.297837,3.65119 0.707334,0.70734 2.006061,1.28606 2.886061,1.28606 1.243505,0 1.599995,0.32841 1.599995,1.47392 0,2.86125 -6.629755,10.04608 -9.269947,10.04608 -0.580756,0 -1.451424,-0.99577 -1.982932,-2.26784 -0.521158,-1.24732 -1.388832,-2.43718 -1.928153,-2.64414 -2.452276,-0.94102 -7.90466,3.26101 -13.118388,10.11005 -2.110957,2.77306 -4.041158,5.02677 -4.289338,5.00823 -0.248179,-0.0186 -1.863571,-0.73402 -3.589753,-1.58996 z M 336.79122,417.91883 c -2.896,-5.47332 -6.08966,-14.95754 -5.30197,-15.74524 0.35719,-0.35718 0.7646,-0.52462 0.90537,-0.37209 1.27216,1.37849 10.01676,18.62117 9.70199,19.13048 -0.22668,0.36677 -1.07502,0.66685 -1.8852,0.66685 -1.14087,0 -1.91216,-0.82987 -3.42019,-3.68 z m -116.43117,-1.94282 c -0.9786,-0.62225 -2.12004,-3.62825 -2.12004,-5.58315 0,-2.61674 -2.54322,-4.87723 -5.91481,-5.25726 l -2.99258,-0.3373 -1.9463,-4.67524 c -1.07047,-2.57139 -1.94631,-4.98071 -1.94631,-5.35407 0,-0.37335 -1.31318,-3.92137 -2.91818,-7.88448 -2.75206,-6.7955 -2.86629,-7.31497 -2.00667,-9.12567 1.10542,-2.32847 0.66243,-3.75366 -2.4227,-7.79412 -2.51907,-3.29913 -2.87628,-5.84295 -1.05227,-7.49365 1.18526,-1.07264 10.75019,-4.01519 11.29163,-3.47375 0.15376,0.15376 1.02514,2.8524 1.93641,5.99697 1.7024,5.87464 4.41739,11.34625 6.61825,13.338 1.48414,1.34313 3.13129,0.71571 4.79765,-1.82746 0.58596,-0.8943 1.60914,-1.62599 2.27374,-1.62599 2.69437,0 6.73057,7.38238 6.33027,11.57835 -0.20669,2.16653 -0.22853,2.18038 -3.15159,1.99974 -4.00598,-0.24757 -4.82424,0.76627 -3.82411,4.73814 0.9408,3.73624 3.33547,8.48153 6.65874,13.19499 l 2.58843,3.67123 -1.50844,1.60567 c -1.64814,1.75436 -7.34915,4.81772 -8.93682,4.80208 -0.54689,-0.005 -1.33633,-0.22726 -1.7543,-0.49303 z m 102.32587,-28.45717 c -3.5783,-5.24527 -7.89639,-13.25583 -7.49534,-13.90473 1.02606,-1.66022 2.38107,-0.11423 6.01665,6.86473 2.15459,4.136 4.07979,8.024 4.27823,8.64 0.66283,2.05754 -0.92245,1.15152 -2.79954,-1.6 z m -170.16408,1.43553 c -1.39943,-0.56385 -2.76183,-2.46247 -2.76183,-3.84885 0,-0.40561 1.728,-2.53701 3.84,-4.73643 5.10247,-5.3137 5.09459,-6.70106 -0.0569,-10.00675 -1.7287,-1.10932 -3.1431,-2.41456 -3.1431,-2.90055 0,-0.48599 1.51954,-2.85031 3.37676,-5.25404 5.02553,-6.50435 7.68539,-10.8911 7.26616,-11.9836 -0.20499,-0.5342 -1.26826,-1.15038 -2.36283,-1.36929 -2.2235,-0.4447 -2.83807,-1.42197 -2.28358,-3.63126 0.84224,-3.35573 7.28031,-9.6528 9.13954,-8.93935 0.51054,0.19592 1.09251,1.17739 1.29324,2.18105 0.20073,1.00366 0.789,2.17675 1.30727,2.60687 0.78474,0.65127 1.87969,-0.20572 6.54826,-5.12522 4.2848,-4.51509 5.76243,-5.71411 6.26988,-5.08768 0.36516,0.45076 1.55209,3.55557 2.63762,6.89957 1.08553,3.344 3.13333,9.09289 4.55068,12.77532 1.41735,3.68244 2.577,6.92962 2.577,7.21596 0,0.28634 -1.67003,2.16945 -3.71116,4.18467 -6.06318,5.9862 -7.36934,10.63195 -3.22236,11.46134 2.73708,0.54742 2.86723,1.68593 0.59711,5.2236 -2.11339,3.29344 -9.72632,10.97911 -10.87519,10.97911 -0.37532,0 -1.26158,-1.13532 -1.96949,-2.52293 -1.40249,-2.74911 -4.70993,-5.60154 -6.73891,-5.81181 -2.67973,-0.27773 -3.32727,0.0931 -4.77513,2.73474 -2.87528,5.24593 -4.35563,6.22365 -7.50304,4.95553 z m -49.44673,-15.67553 c 0.004,-0.97435 5.04391,-6.52029 5.0658,-5.57522 0.0105,0.45363 -1.12571,2.03763 -2.52491,3.52 -1.39919,1.48237 -2.5426,2.40722 -2.54089,2.05522 z m 143.95583,-35.615 c -2.71609,-3.72392 -5.5948,-9.47883 -6.29064,-12.57578 -0.80175,-3.56833 -0.0256,-4.60922 3.43676,-4.60922 2.31734,0 3.02471,-0.29191 3.88351,-1.60261 0.89359,-1.36379 0.93888,-2.04423 0.30389,-4.56602 -1.00288,-3.98278 -2.91593,-7.60868 -4.65829,-8.82908 -1.90774,-1.33624 -1.90432,-1.3371 -5.01141,1.2588 -2.46832,2.06222 -2.82546,2.18209 -4.06055,1.36293 -1.95967,-1.29975 -4.23747,-6.0989 -5.59087,-11.77951 -1.39482,-5.85448 -1.2996,-6.01555 4.23667,-7.1667 4.41918,-0.91887 8.59994,-3.13137 10.51319,-5.56367 1.77647,-2.25841 1.69726,-2.78798 -0.90698,-6.06407 -2.65977,-3.34595 -2.75616,-4.34583 -0.65917,-6.83796 2.16361,-2.5713 5.0465,-3.72277 7.04305,-2.81308 1.53085,0.69751 2.87882,3.96708 2.88634,7.00097 0.004,1.86454 2.15757,4 4.03276,4 0.80806,0 3.60275,-1.27672 6.21044,-2.83715 2.60768,-1.56044 4.98784,-2.68476 5.28923,-2.49849 1.26132,0.77954 13.24388,26.16675 16.07454,34.05678 1.68862,4.70679 3.62757,9.85804 4.30877,11.44723 1.12302,2.61988 1.14801,3.0276 0.26794,4.37076 -1.33422,2.03628 -6.22474,4.79354 -9.21317,5.19438 -2.07513,0.27833 -2.64104,0.0913 -3.51981,-1.16334 -0.57592,-0.82224 -1.04713,-2.59599 -1.04713,-3.94167 0,-1.74438 -0.45092,-2.8976 -1.57091,-4.01759 -1.83068,-1.83069 -4.0616,-1.99516 -7.15452,-0.52748 -4.46208,2.11739 -5.31015,5.82478 -2.15457,9.41879 4.69522,5.34756 0.0326,10.01856 -11.6289,11.64971 -2.95825,0.41379 -3.00973,0.38952 -5.02017,-2.36693 z m -39.94522,-27.79072 c -0.66,-0.66 -1.00571,-2.16587 -1.00571,-4.3808 0,-3.7942 -1.03273,-5.22003 -4.24642,-5.86276 -2.32347,-0.4647 -5.69296,0.84814 -10.27824,4.00465 -1.82856,1.25878 -3.72658,2.13446 -4.21783,1.94595 -1.41864,-0.54437 -6.01047,-10.01472 -6.85101,-14.12974 -0.93417,-4.57341 -0.48998,-5.19841 3.69999,-5.20607 l 3.01351,-0.006 0.19369,-3.00647 c 0.23865,-3.70412 -0.68811,-7.31171 -2.61433,-10.17687 -1.97881,-2.94338 -3.81828,-3.10238 -6.16512,-0.53292 -2.40632,2.63458 -3.52722,2.20213 -5.48426,-2.11586 -1.67396,-3.69341 -3.74486,-13.52263 -3.20646,-15.21897 0.75889,-2.39107 9.28863,-7.02891 12.92729,-7.02891 0.48805,0 1.59427,0.70691 2.45827,1.57091 1.27932,1.27931 1.57092,2.21128 1.57092,5.02081 0,3.9749 1.20643,5.56973 4.21039,5.56589 3.74158,-0.004 8.49299,-4.31734 7.65738,-6.95011 -0.21911,-0.69034 -1.25099,-2.32804 -2.29307,-3.63934 -3.91543,-4.92692 -1.65622,-8.22844 7.0653,-10.32498 l 3.52,-0.84616 1.79085,2.08149 c 2.67831,3.11297 5.546,9.35822 5.95425,12.96715 0.49872,4.40862 -0.52415,5.68503 -4.43719,5.53702 -2.50493,-0.0948 -3.11071,0.12977 -3.99612,1.48107 -0.97487,1.48785 -0.95594,1.88138 0.28748,5.97505 1.40891,4.63854 3.71585,7.8012 5.69043,7.8012 0.65495,0 2.01859,-0.864 3.0303,-1.92 1.01171,-1.056 2.17832,-1.92 2.59246,-1.92 1.33012,0 4.27489,3.42592 5.77622,6.72 1.54606,3.3922 3.26299,10.98166 2.628,11.61666 -0.20766,0.20765 -1.70556,0.62564 -3.32868,0.92887 -4.74083,0.88569 -8.46298,2.83218 -9.88396,5.16878 -1.54441,2.5396 -1.2531,3.78255 1.69543,7.23385 2.72939,3.19479 2.62632,5.17582 -0.37412,7.19117 -2.51974,1.69246 -5.93178,1.90282 -7.37964,0.45495 z m 91.54105,-95.06214 c -2.17718,-0.60069 -5.23063,-3.34452 -6.56449,-5.89885 -1.18664,-2.27243 -0.72692,-4.45254 1.71518,-8.1337 1.04339,-1.57277 1.89722,-3.57959 1.89742,-4.45959 5.2e-4,-2.37419 -2.26496,-5.66285 -4.243,-6.15931 -2.41354,-0.60576 -3.79234,1.30989 -4.32379,6.00734 -0.44269,3.91279 -1.75392,6.55197 -3.25527,6.55197 -1.20786,0 -4.75981,-3.08191 -6.10912,-5.30068 -1.06257,-1.74725 -1.06116,-2.08605 0.0295,-7.06727 1.96177,-8.95977 4.56244,-14.51205 6.79741,-14.51205 0.46872,0 1.27339,1.008 1.78815,2.24 0.51477,1.232 1.19399,2.24 1.5094,2.24 1.64908,0 3.90338,-4.57842 5.29109,-10.74608 0.75435,-3.35264 0.0797,-4.86413 -2.58573,-5.79331 -1.69887,-0.59223 -1.93351,-0.9724 -1.93351,-3.13285 0,-4.46814 4.29345,-17.44776 5.77144,-17.44776 0.26215,0 1.24571,1.0083 2.18568,2.24067 1.9946,2.61506 5.05789,4.38048 6.69774,3.86 1.56748,-0.49749 2.62514,-3.04721 2.62514,-6.32846 0,-1.50016 0.38719,-3.25708 0.86042,-3.90426 1.86137,-2.54557 6.39291,0.89455 6.39291,4.85317 0,0.94632 -0.768,2.63329 -1.70666,3.74883 -3.63671,4.32198 -1.71551,9.77061 4.74124,13.4464 3.71533,2.11511 4.09564,2.52154 3.94163,4.21232 -0.55453,6.08767 -4.4577,16.75203 -6.36244,17.38364 -0.4251,0.14096 -1.18771,-0.73649 -1.6947,-1.94988 -0.50699,-1.21339 -1.28635,-2.43148 -1.73192,-2.70686 -2.135,-1.3195 -6.56517,7.97095 -6.23121,13.06739 0.17861,2.72581 0.3249,2.93792 2.30321,3.33967 1.16186,0.23594 2.29933,0.61585 2.52771,0.84422 1.38002,1.38002 -5.44061,18.91339 -7.67261,19.72349 -0.44417,0.16121 -1.64153,0.063 -2.66082,-0.2182 z M 241.7193,214.4648 c -0.23946,-0.23946 -1.34437,-2.40745 -2.45535,-4.81777 -1.68341,-3.6522 -2.34694,-4.46711 -3.98228,-4.89088 -2.4045,-0.62306 -4.87049,-4.96917 -5.06911,-8.93386 -0.18419,-3.67654 0.85238,-3.60726 2.64144,0.17655 0.83216,1.76 1.62149,3.31304 1.75405,3.4512 0.63661,0.66349 2.30208,-1.9306 7.31196,-11.38892 2.992,-5.6487 5.8,-10.27754 6.24,-10.28632 1.17556,-0.0234 1.06797,0.32456 -2.06081,6.66586 -1.57345,3.189 -3.30145,7.51469 -3.84,9.61265 -1.73426,6.75585 -1.12713,8.75286 2.57889,8.48272 1.79951,-0.13118 1.87556,-0.0305 1.7367,2.30044 -0.0799,1.3407 -0.89235,3.9327 -1.8055,5.76 -1.89632,3.7947 -2.43738,4.48094 -3.04999,3.86833 z m -98.67586,-13.93018 c -0.51245,-1.79068 -1.81636,-7.28778 -2.89759,-12.21578 -1.08123,-4.928 -2.65109,-11.84 -3.48858,-15.36 -2.09925,-8.82318 -3.20765,-16.28076 -2.51065,-16.89236 0.31536,-0.27674 2.95301,-1.46713 5.86145,-2.64533 3.74458,-1.51692 5.48725,-1.94299 5.9705,-1.45975 0.82581,0.82582 2.04329,13.90647 1.51749,16.30398 -0.43212,1.97029 -1.65777,2.61797 -3.8927,2.05704 -2.04836,-0.51411 -3.93006,1.16848 -4.45882,3.98699 -0.79552,4.24051 2.13238,11.76943 4.57698,11.76943 0.49973,0 1.67844,-0.864 2.61934,-1.92 0.9409,-1.056 2.07428,-1.92 2.51862,-1.92 1.14717,0 4.74389,7.9204 5.53951,12.19864 0.78228,4.20647 0.32058,6.69967 -1.41242,7.62714 -0.68107,0.36451 -2.98726,0.90191 -5.12486,1.19425 l -3.88655,0.53152 z M 193.07983,185.269 c -1.41263,-1.05511 -3.96794,-7.51171 -4.94709,-12.49999 -1.08801,-5.54292 -0.26002,-7.48813 2.96464,-6.96484 1.74811,0.28368 2.54967,0.0676 3.58313,-0.96583 1.18954,-1.18954 1.2924,-1.8451 0.96621,-6.15806 -0.58936,-7.79272 -3.33139,-10.23878 -7.23563,-6.45464 -1.41145,1.36803 -2.39231,1.88798 -2.79739,1.4829 -0.81073,-0.81073 -4.4843,-14.77889 -4.48961,-17.07102 -0.003,-1.41701 0.75829,-2.32256 3.8958,-4.63225 8.32962,-6.13192 14.00357,-5.31574 12.69753,1.82649 -0.97228,5.31696 1.7369,7.36245 6.57859,4.96697 1.48648,-0.73545 2.89917,-1.12629 3.13929,-0.86854 0.7363,0.79036 15.28471,35.38351 15.28471,36.34393 0,1.23903 -2.98842,1.89705 -4.16832,0.91782 -0.60099,-0.49878 -0.95168,-1.92477 -0.95168,-3.8698 0,-3.90999 -0.84613,-6.13934 -2.53339,-6.67485 -3.32632,-1.05574 -9.20647,3.12618 -9.19288,6.53791 0.004,0.9755 0.77188,2.89383 1.70666,4.26295 0.93479,1.36912 1.69961,2.7271 1.69961,3.01773 0,0.29063 -0.87743,1.52776 -1.94985,2.74917 -2.82599,3.21863 -11.90914,5.80261 -14.25033,4.05395 z m 82.76018,-42.07016 c -1.69273,-1.69273 -1.61438,-3.63461 0.31375,-7.77644 0.87656,-1.88296 1.59656,-4.16536 1.6,-5.072 0.007,-1.94445 -2.10855,-4.11984 -4.98128,-5.12128 -2.40695,-0.83906 -2.44046,-1.10586 -0.80944,-6.44286 2.44603,-8.00381 5.2617,-20.139179 6.79965,-29.306091 2.48302,-14.79989 2.76975,-15.933618 4.13976,-16.368447 1.53577,-0.487437 5.47661,1.338195 6.71971,3.11296 1.27581,1.821478 1.1795,3.545165 -0.39725,7.109683 -1.53684,3.474253 -1.27639,5.471174 1.01203,7.759596 3.05506,3.055053 6.08307,1.391028 6.08307,-3.342905 0,-3.686342 0.90283,-5.352211 2.90067,-5.352211 1.81536,0 6.0211,3.55152 8.00275,6.757888 1.23029,1.990649 1.27925,2.532582 0.64491,7.138156 -1.01107,7.340791 -2.99742,12.983951 -4.57026,12.983951 -0.29986,0 -0.99199,-0.864 -1.53807,-1.92 -2.12184,-4.10318 -4.60049,-1.77933 -6.40602,6.00596 -1.18829,5.12381 -0.62167,7.08451 2.21106,7.65105 1.09184,0.21837 2.1717,0.88313 2.39969,1.47725 0.83667,2.18034 -2.47796,13.36304 -4.81715,16.25182 l -1.10009,1.35856 -3.25232,-3.25232 c -2.47404,-2.47405 -3.71489,-3.25232 -5.18538,-3.25232 -2.5309,0 -3.12148,0.85276 -3.65692,5.28039 -0.65014,5.37612 -3.23195,7.20053 -6.11287,4.31961 z M 155.73839,99.964835 c -0.20978,-0.546707 -0.0662,-2.563744 0.31912,-4.482311 0.38531,-1.918566 0.5429,-3.899135 0.35021,-4.401267 -0.37394,-0.974476 -3.50464,-2.282412 -5.46321,-2.282412 -0.65148,0 -1.1845,-0.248442 -1.1845,-0.552096 0,-0.47936 14.40722,-25.588462 15.05255,-26.233793 0.133,-0.132991 0.97657,0.583429 1.87463,1.592044 l 1.63282,1.833845 1.60829,-1.80533 c 2.22079,-2.492863 3.66521,-2.022652 4.5802,1.491021 1.03163,3.961567 1.0648,13.548082 0.0515,14.885803 -0.44,0.580884 -2.24,1.391469 -4,1.801306 -4.81125,1.120365 -5.91139,1.654905 -7.08156,3.440806 -1.19303,1.820794 -1.36088,6.00384 -0.31902,7.950566 1.22147,2.282343 0.78348,4.355456 -1.28853,6.098938 -2.22144,1.869225 -5.53225,2.227095 -6.1325,0.66288 z M 187.464,79.112227 c -0.0308,-0.128358 -0.73377,-4.25639 -1.56216,-9.173401 -1.06894,-6.344945 -1.3107,-9.17553 -0.83282,-9.751338 1.38352,-1.667043 9.67261,-5.308642 12.08364,-5.308642 2.85617,0 3.12991,0.537883 2.33072,4.579789 -0.33103,1.674215 -0.43455,3.480087 -0.23003,4.013048 0.74782,1.948771 3.40619,1.861181 7.75082,-0.255381 3.77976,-1.841373 5.47584,-2.069791 5.47584,-0.737455 0,0.266454 -1.51913,1.114104 -3.37584,1.883668 -5.84366,2.422059 -13.07458,7.022788 -17.40626,11.074865 -2.29785,2.149523 -4.20311,3.803206 -4.23391,3.674847 z m 61.03476,-36.686358 c -2.07033,-1.505258 -3.13802,-5.518011 -2.1213,-7.972596 0.98469,-2.37724 2.27724,-2.82464 6.60008,-2.284535 2.87287,0.358941 3.53334,0.233582 4.52137,-0.858176 1.58188,-1.747961 1.17458,-4.6671 -0.78692,-5.639784 -1.20236,-0.596238 -2.15716,-0.566775 -4.48,0.138243 -3.8344,1.163799 -5.5104,1.139977 -6.74627,-0.09589 -1.22656,-1.226562 -1.33172,-5.606993 -0.15799,-6.581104 1.08036,-0.896617 9.37914,-2.655911 12.47412,-2.644442 4.49578,0.01666 5.34215,0.531985 5.11849,3.116451 l -0.20033,2.31481 5.27389,0.185784 c 2.9021,0.102233 5.84798,-0.121457 6.55043,-0.497391 1.06372,-0.569287 1.65039,-0.333529 3.51917,1.414215 2.19285,2.050823 2.257,2.253703 2.88904,9.137391 0.98058,10.679544 0.98235,10.663316 -1.11253,10.169564 -2.39962,-0.565576 -3.15449,-1.351073 -2.208,-2.297564 1.20227,-1.202274 0.90374,-2.954316 -0.64458,-3.782954 -1.89845,-1.016018 -9.41763,-1.013161 -11.28773,0.0043 -1.50521,0.818924 -1.51161,0.909398 -0.32629,4.618406 0.48873,1.52928 -1.22051,1.979632 -8.7334,2.301087 -5.49446,0.235092 -6.9792,0.09908 -8.14125,-0.745804 z M 182.71554,31.207485 c 2.2591,-4.368629 10.27605,-11.381851 12.17696,-10.652403 1.45419,0.558024 1.28075,6.303803 -0.2316,7.672457 -1.10261,0.997848 -10.88997,4.891307 -12.29575,4.891307 -0.35091,0 -0.19323,-0.860112 0.35039,-1.911361 z"
         style="fill:#ffdd55;stroke-width:0.64" />
      <path
         id="path36"
         d="m 50.636986,602.95672 c -1.687487,-1.18197 -3.305148,-4.5398 -2.809425,-5.83164 0.181671,-0.47343 1.518791,-1.45807 2.971377,-2.18808 3.527324,-1.77271 4.881066,-3.03791 4.881066,-4.56182 0,-2.1714 -2.508278,-5.45135 -5.79991,-7.58425 -1.73805,-1.12622 -3.160091,-2.22945 -3.160091,-2.45163 0,-0.95761 6.330078,-8.14609 8.898215,-10.10487 3.652597,-2.78593 5.742162,-2.63668 6.781732,0.4844 1.082213,3.2491 3.568668,3.35969 7.530096,0.33491 5.548256,-4.23641 7.976998,-10.65602 4.196793,-11.0929 -3.009913,-0.34786 -3.285536,-1.52257 -1.1232,-4.78711 2.774778,-4.18915 11.373153,-13.8949 12.309562,-13.8949 1.345363,0 8.766804,7.50736 8.766804,8.86829 0,0.70089 -0.894855,1.94426 -1.98857,2.76303 -3.860928,2.89035 -6.331431,5.53525 -6.331431,6.77837 0,2.02306 2.427181,4.53914 5.172122,5.36154 1.398899,0.41912 2.462387,0.93005 2.363309,1.13541 -0.09909,0.20535 -2.364038,3.68536 -5.033223,7.73336 -2.66919,4.048 -7.928275,12.06211 -11.686848,17.80914 l -6.833779,10.44914 -1.770259,-1.48914 c -0.973645,-0.81903 -2.967668,-2.02884 -4.43116,-2.68847 -3.778595,-1.7031 -5.703638,-1.05858 -7.189154,2.40699 -1.563843,3.6483 -3.141214,4.35229 -5.714026,2.55023 z m 239.323444,-33.63429 -2.17504,-3.95639 2.6673,2.1435 c 1.99752,1.60525 2.66732,2.59876 2.66732,3.9564 0,0.99709 -0.22152,1.81289 -0.49228,1.81289 -0.27074,0 -1.47104,-1.78038 -2.6673,-3.9564 z m 12.52639,-1.98098 c -0.59409,-0.43441 -1.49438,-2.37221 -2.00067,-4.30622 -0.92297,-3.52581 -3.24874,-6.3964 -5.18238,-6.3964 -3.56629,0 -8.35467,4.54924 -7.67551,7.29219 0.53874,2.17587 -0.56938,0.28439 -9.52124,-16.25219 -4.85904,-8.976 -9.94939,-18.37233 -11.31189,-20.88074 -2.16039,-3.97736 -2.35434,-4.66277 -1.5162,-5.35836 0.52859,-0.4387 0.96108,-1.17831 0.96108,-1.64357 0,-1.4026 -2.78246,-4.17205 -4.30331,-4.28319 -1.86686,-0.13643 -2.14903,-1.05028 -1.09692,-3.55253 0.90517,-2.15276 3.00741,-3.32843 5.92189,-3.31181 2.59065,0.0148 3.29628,0.7474 4.26807,4.4313 1.15546,4.38012 2.47692,5.8005 5.38946,5.7929 2.19175,-0.006 8.41871,-2.98201 9.33257,-4.46067 0.93366,-1.51069 2.8719,-0.43378 5.70147,3.1678 3.55333,4.52283 5.66493,8.99223 5.38703,11.40219 -0.18037,1.56418 -0.48508,1.75694 -3.0677,1.94068 -1.5771,0.11221 -3.2331,0.50747 -3.68,0.87837 -3.23459,2.68447 3.74592,15.23763 8.47328,15.23763 1.08746,0 1.86261,-0.58269 2.55416,-1.92 1.23052,-2.37956 2.18239,-2.41524 4.26866,-0.16 3.1324,3.38609 11.41134,15.69457 11.41134,16.96548 0,0.57997 -9.35228,5.27192 -11.57652,5.80784 -0.93799,0.22599 -2.12505,0.0565 -2.73667,-0.3907 z M 24.398477,558.10358 c -1.102946,-2.74161 -1.991294,-5.27275 -1.974106,-5.62475 0.01719,-0.352 1.024552,1.78618 2.238588,4.75152 1.214036,2.96534 2.102384,5.49647 1.974106,5.62475 -0.128278,0.12828 -1.135643,-2.0099 -2.238588,-4.75152 z M 389.58043,516.31883 c -4.76586,-10.37797 -5.60137,-12.46228 -5.30507,-13.23441 0.20201,-0.52646 1.40529,-0.84559 3.18827,-0.84559 2.14535,0 3.0904,-0.32351 3.76704,-1.28955 0.87056,-1.2429 0.98928,-1.17925 3.28226,1.76 2.81833,3.61267 2.7853,4.09826 -0.7995,11.75474 l -2.51652,5.37481 z m -377.455257,-12 c -0.353731,-0.968 -0.781524,-2.15117 -0.950651,-2.62926 -0.203239,-0.57453 -1.042013,-0.78351 -2.4737726,-0.61636 l -2.1662695,0.2529 -0.4009538,-3.54397 c -0.4847075,-4.28424 0.3834581,-9.28268 2.2531081,-12.9722 1.6028468,-3.16302 8.0062678,-12.63871 10.6227558,-15.7194 l 1.790613,-2.1083 2.4,1.99489 c 2.313548,1.92303 2.98623,3.85908 1.9102,5.49777 -0.25861,0.39383 -1.977309,1.47621 -3.81933,2.40527 -6.503789,3.28033 -5.044259,8.86555 3.705748,14.18091 2.09186,1.27073 3.803382,2.5583 3.803382,2.86124 0,0.83484 -14.464706,12.15651 -15.531296,12.15651 -0.275212,0 -0.789802,-0.792 -1.143534,-1.76 z m 107.452547,-6.57396 c -4.97458,-2.628 -6.68411,-7.72702 -3.36479,-10.03616 6.54225,-4.55122 7.50247,-6.89084 4.26708,-10.39694 -3.59376,-3.89444 -7.05507,-2.80235 -10.08802,3.18288 -0.86108,1.69925 -2.13314,3.26968 -2.8268,3.48984 -2.71922,0.86305 -7.71618,-3.63025 -7.722792,-6.94438 -0.006,-2.99789 10.832102,-15.12128 13.518142,-15.12128 1.13677,0 1.83947,1.2501 1.83947,3.27243 0,3.26209 4.50737,1.82887 8.6144,-2.73915 4.45233,-4.95205 5.38303,-9.49328 1.9456,-9.49328 -2.49307,0 -2.68281,-1.70261 -0.62729,-5.62861 2.31554,-4.42261 8.50325,-11.01139 10.34112,-11.01139 0.87001,0 1.82572,0.7898 2.65357,2.19289 2.27973,3.86386 6.4035,5.51669 8.80055,3.52731 0.55655,-0.46189 1.70412,-2.20583 2.55018,-3.87544 2.60565,-5.14201 5.7802,-6.09572 7.90027,-2.37343 1.28672,2.25912 0.46001,4.40873 -2.46809,6.41758 -1.38604,0.9509 -3.00016,2.46163 -3.58695,3.35718 -2.13552,3.25923 0.4211,8.62386 5.18789,10.88585 l 2.28612,1.08484 -4.68288,4.91161 c -5.4728,5.74011 -8.90847,11.62828 -7.80995,13.38496 0.3875,0.61966 1.6115,1.2169 2.72,1.3272 1.1085,0.11031 2.01546,0.30223 2.01546,0.42651 0,0.12426 -1.82737,2.99731 -4.06082,6.38453 -3.66295,5.5552 -4.14882,6.05255 -4.95908,5.07624 -0.49405,-0.59529 -1.18668,-1.97458 -1.53919,-3.06509 -0.48161,-1.48993 -1.07903,-2.03314 -2.40359,-2.18551 -2.32388,-0.26732 -8.10463,5.18744 -11.67732,11.01881 -1.408,2.29815 -2.992,4.17596 -3.52,4.17292 -0.528,-0.003 -2.01403,-0.56235 -3.30229,-1.24292 z m 228.9761,-4.65404 c -0.81617,-0.81618 -1.65978,-2.66731 -1.89991,-4.169 -0.61807,-3.86521 -2.24719,-5.243 -6.1994,-5.243 -3.2723,0 -6.18012,1.14261 -10.96325,4.30794 -2.264,1.49824 -3.73125,1.52412 -3.73125,0.0658 0,-1.72911 -4.14128,-9.05039 -6.77858,-11.9837 -3.58605,-3.98854 -5.81522,-4.36273 -8.04262,-1.35003 -0.78073,1.056 -1.91688,1.92 -2.52476,1.92 -1.59254,0 -5.97732,-5.2456 -6.86701,-8.21513 -1.0822,-3.61207 -0.50953,-4.58487 2.69904,-4.58487 3.57611,0 5.51568,-1.4214 5.50768,-4.03629 -0.008,-2.66035 -2.49642,-7.94394 -6.15708,-13.0739 -1.60779,-2.25311 -2.77102,-4.2488 -2.58495,-4.43486 0.52229,-0.52229 38.31292,-18.77495 38.87199,-18.77495 0.27138,0 0.98734,1.512 1.59102,3.36 1.86613,5.71265 4.46383,10.97214 6.64769,13.45942 2.40306,2.73694 2.78445,2.83371 4.48118,1.13699 1.23145,-1.23146 1.2714,-1.19555 4.09355,3.68 l 2.84996,4.92359 -1.78532,0.48062 c -0.98192,0.26434 -1.95532,0.92365 -2.16311,1.46512 -0.20778,0.54148 1.22647,4.6452 3.18723,9.11938 4.65222,10.61571 4.70024,10.84341 2.40306,11.3952 -4.61559,1.10867 -9.82897,5.19617 -9.82897,7.70631 0,0.78953 1.15001,2.76426 2.55558,4.38827 3.812,4.40441 4.17288,5.29728 2.77543,6.86667 -1.14564,1.2866 -4.60975,3.05843 -5.97955,3.05843 -0.3793,0 -1.35024,-0.6606 -2.15765,-1.468 z m 25.00511,-7.332 c -4.5119,-7.08087 -7.00411,-11.72814 -6.53895,-12.1933 0.24055,-0.24055 1.63946,-0.73187 3.1087,-1.09183 l 2.67133,-0.65448 4.64,6.87735 c 2.552,3.78253 4.64,6.99648 4.64,7.14211 0,0.78287 -3.86564,4.24015 -4.74097,4.24015 -0.56988,0 -2.25326,-1.9238 -3.78011,-4.32 z M 234.88824,462.61072 c -5.43415,-11.60652 -24.96823,-55.32016 -24.96823,-55.87424 0,-0.96149 4.35314,-0.48525 5.68871,0.62235 0.84211,0.69839 1.59223,2.4212 1.99264,4.57652 0.82701,4.45175 1.49779,5.18348 4.75171,5.18348 2.46515,0 5.12163,-1.30529 9.7532,-4.79236 2.71008,-2.0404 11.52731,14.43649 9.21579,17.22169 -0.49687,0.59869 -1.54471,0.77317 -3.26096,0.54297 -3.01847,-0.40487 -4.46109,0.55894 -4.46109,2.98041 0,3.58068 5.58701,12.31804 8.33638,13.03702 0.90885,0.23767 2.03813,-0.26886 3.54076,-1.58819 1.2309,-1.08074 2.6186,-1.77895 3.13887,-1.5793 1.46479,0.5621 4.69345,5.36841 7.51908,11.19324 2.19217,4.51898 2.45333,5.46726 1.70658,6.19671 -0.48492,0.47369 -5.06702,2.84808 -10.18244,5.27642 l -9.30077,4.41517 z m -71.0242,-4.85189 c 0.003,-0.352 0.59336,-1.36 1.31315,-2.24 0.86926,-1.06272 1.08659,-1.17018 0.6472,-0.32 -1.07886,2.08754 -1.96509,3.24485 -1.96035,2.56 z m 12.13597,-18.88 c 0.37676,-0.704 0.82903,-1.28 1.00503,-1.28 0.176,0 0.0117,0.576 -0.36503,1.28 -0.37677,0.704 -0.82904,1.28 -1.00504,1.28 -0.176,0 -0.0117,-0.576 0.36504,-1.28 z m 2.25507,-3.56227 c 0.595,-1.07925 1.65104,-2.66325 2.34675,-3.52 l 1.26493,-1.55773 -1.08183,1.96228 c -0.595,1.07925 -1.65104,2.66325 -2.34675,3.52 l -1.26493,1.55772 z m 75.59481,-23.79773 c -0.17401,-0.616 -0.51454,-2.39021 -0.75674,-3.94269 -0.61633,-3.95071 -2.63857,-5.81731 -6.30239,-5.81731 -3.71751,0 -5.74029,0.80768 -9.72829,3.8844 -1.79339,1.38358 -3.59991,2.5156 -4.0145,2.5156 -1.16688,0 -6.97491,-9.32195 -8.16982,-13.11265 -1.46378,-4.64363 -1.03154,-5.44734 2.92958,-5.44734 2.89495,0 3.24739,-0.15737 3.61276,-1.61312 0.80612,-3.21184 -1.48821,-9.56007 -4.56833,-12.64018 -2.30985,-2.30986 -3.51061,-2.20372 -5.99846,0.53025 -1.13959,1.25232 -2.40987,2.16864 -2.82284,2.03626 -2.13702,-0.68502 -6.82926,-11.27549 -7.8647,-17.75081 -0.34128,-2.13421 -0.17422,-2.52646 1.62015,-3.80416 2.61857,-1.86459 8.4127,-3.87824 11.15934,-3.87824 2.74428,0 3.68078,1.13092 4.32825,5.22679 0.66658,4.21673 1.98208,5.65321 5.17708,5.65321 4.27616,0 8.18903,-2.91501 8.18903,-6.10066 0,-0.73472 -1.296,-2.85415 -2.88,-4.70985 -1.584,-1.85571 -2.88,-3.79559 -2.88,-4.31084 0,-1.74001 3.04622,-3.99843 6.81378,-5.05163 2.06042,-0.57598 4.24906,-1.18772 4.86365,-1.35944 2.43075,-0.67915 9.06709,9.65436 9.84499,15.32974 0.3381,2.46673 0.20889,2.97299 -0.91186,3.5728 -0.71818,0.38436 -2.16336,0.52732 -3.2115,0.31769 -2.18677,-0.43736 -4.59906,1.43423 -4.59906,3.56818 0,4.4839 5.58431,12.82397 8.58667,12.82403 0.75466,2e-5 2.21081,-1.04159 3.35518,-2.4 l 2.02185,-2.40002 1.81815,1.34031 c 2.81264,2.07343 5.20418,5.88794 6.97727,11.12873 1.523,4.50162 1.55313,4.8338 0.50765,5.59826 -0.61128,0.44699 -1.70437,0.81902 -2.42909,0.82675 -1.96807,0.021 -6.83802,2.39236 -8.83768,4.30341 -2.6012,2.48594 -2.321,4.60816 1.12,8.48253 2.99156,3.36834 3.14122,3.69458 2.48244,5.41133 -1.01357,2.64134 -8.77591,4.11329 -9.43256,1.78867 z m -58.84607,-1.48293 c 0.63591,-1.07962 1.71382,-2.44762 2.39537,-3.04 0.68155,-0.59239 0.27273,0.29093 -0.90849,1.96293 -2.43442,3.44588 -3.21529,4.01153 -1.48688,1.07707 z m -86.59101,-4.17954 c -3.09208,-4.91059 -9.609624,-7.64414 -11.854444,-4.97193 -0.483097,0.57508 -1.454361,2.23108 -2.158361,3.68 -1.151552,2.37005 -1.540372,2.65354 -3.874695,2.82508 -4.761747,0.34993 -7.838304,-3.90398 -4.882298,-6.75068 0.639655,-0.616 2.511655,-2.05006 4.160001,-3.1868 1.691859,-1.16676 2.996992,-2.56796 2.996992,-3.2176 0,-1.18816 -1.583834,-3.83085 -2.970029,-4.95559 -1.175872,-0.9541 10.354154,-13.71039 13.246434,-14.65524 2.43696,-0.7961 6.67203,-5.88777 7.57585,-9.10817 0.30925,-1.10187 3.835,-5.77965 7.83501,-10.39506 l 7.27274,-8.39165 1.44,1.63075 c 0.792,0.89691 1.44,2.04716 1.44,2.55612 0,0.50896 -1.44703,1.96496 -3.21562,3.23557 -3.62175,2.60196 -4.46438,3.82769 -4.46438,6.49404 0,3.13345 4.70435,6.3636 8.0463,5.52483 1.83244,-0.45992 4.7537,-3.71215 4.7537,-5.2923 0,-2.57374 2.5744,-3.32623 5.75415,-1.68191 2.00354,1.03607 7.68585,7.62275 7.68585,8.9091 0,1.13771 -12.76902,15.09392 -13.80996,15.09392 -0.48039,0 -1.11427,-0.936 -1.40862,-2.08 -0.81282,-3.15914 -3.48059,-3.17931 -7.1319,-0.0539 -3.05587,2.61569 -6.44952,7.48475 -6.44952,9.25347 0,1.59334 1.75482,3.12042 3.58579,3.12042 3.90857,0 1.79274,4.22609 -5.61401,11.21324 -2.41768,2.28072 -4.78062,4.14675 -5.25097,4.14675 -0.47036,0 -1.68896,-1.32411 -2.70801,-2.94247 z m 221.63226,-7.62556 c -0.58539,-1.22758 -0.93241,-2.23197 -0.77114,-2.23197 0.43793,0 2.38075,3.91867 2.08797,4.21144 -0.13886,0.13887 -0.73144,-0.75189 -1.31683,-1.97947 z m -19.35138,-36.83454 c -0.23202,-0.37542 -0.28459,-0.81984 -0.11683,-0.98761 0.16776,-0.16776 0.47556,0.1394 0.684,0.68258 0.43276,1.12775 0.0639,1.32612 -0.56717,0.30503 z M 162.24001,302.55884 c 0.63711,-0.704 1.30238,-1.28 1.47838,-1.28 0.176,0 -0.20127,0.576 -0.83838,1.28 -0.63712,0.704 -1.30239,1.28 -1.47839,1.28 -0.176,0 0.20127,-0.576 0.83839,-1.28 z m 2.56,-3.2 c 0.63711,-0.704 1.30238,-1.28 1.47838,-1.28 0.176,0 -0.20127,0.576 -0.83838,1.28 -0.63712,0.704 -1.30239,1.28 -1.47839,1.28 -0.176,0 0.20127,-0.576 0.83839,-1.28 z m 1.6,-2.16164 c 0,-0.1329 0.504,-0.6369 1.12,-1.12 1.01507,-0.79608 1.03771,-0.77344 0.24163,0.24164 -0.83607,1.06608 -1.36163,1.40511 -1.36163,0.87836 z m 1.68,-4.31836 c -0.53354,-2.66768 -0.0165,-3.18473 0.56,-0.56 0.24299,1.10634 0.30839,2.14493 0.14535,2.30799 -0.16306,0.16305 -0.48046,-0.62355 -0.70535,-1.74799 z m -1.95429,-6.68572 c -0.2354,-0.93792 -0.30458,-1.82875 -0.15372,-1.97961 0.15085,-0.15085 0.46689,0.49312 0.70229,1.43104 0.23541,0.93793 0.30458,1.82875 0.15372,1.97961 -0.15085,0.15086 -0.46688,-0.49311 -0.70229,-1.43104 z m -2.56,-8.32 c -0.2354,-0.93792 -0.30458,-1.82875 -0.15372,-1.97961 0.15085,-0.15085 0.46689,0.49312 0.70229,1.43104 0.23541,0.93793 0.30458,1.82875 0.15372,1.97961 -0.15085,0.15086 -0.46688,-0.49311 -0.70229,-1.43104 z m -1.92,-6.4 c -0.2354,-0.93792 -0.30458,-1.82875 -0.15372,-1.97961 0.15085,-0.15085 0.46689,0.49312 0.70229,1.43104 0.23541,0.93793 0.30458,1.82875 0.15372,1.97961 -0.15085,0.15086 -0.46688,-0.49311 -0.70229,-1.43104 z m 113.70596,-2.98978 c -4.94118,-3.36911 -5.79924,-6.96469 -2.67572,-11.21202 3.50297,-4.7633 2.96032,-9.78113 -1.29578,-11.98205 -3.67887,-1.90242 -5.38608,-0.0152 -7.66197,8.46957 -0.40127,1.496 -0.96314,2.72 -1.2486,2.72 -0.83957,0 -4.5496,-8.95612 -4.5496,-10.98287 0,-3.60875 4.2829,-13.97713 5.77358,-13.97713 0.28993,0 0.85142,0.98253 1.24774,2.1834 0.39632,1.20088 1.14519,2.34635 1.66415,2.54549 2.42818,0.93178 6.64282,-6.9777 7.16154,-13.43983 0.34421,-4.28805 0.40957,-4.18395 -2.72701,-4.34382 -1.83801,-0.0937 -1.93839,-2.60982 -0.34875,-8.74237 1.57608,-6.08028 3.67711,-10.80951 5.03354,-11.33001 0.61484,-0.23594 1.69177,0.47665 2.94249,1.94699 4.45195,5.23372 8.17751,3.9416 9.03616,-3.13398 0.57716,-4.75599 1.23325,-6.00587 3.15262,-6.00587 1.75663,0 4.18394,2.70947 4.18394,4.67028 0,0.71371 -0.936,2.75629 -2.08,4.53906 -3.76886,5.87327 -2.02385,12.0615 4.23019,15.00125 l 2.89925,1.3628 -2.56207,5.46732 c -2.96079,6.31816 -4.77534,13.79589 -3.79308,15.63125 0.50465,0.94295 -0.0554,2.52196 -2.66047,7.5012 -1.81483,3.46876 -3.68087,6.53716 -4.14677,6.81865 -1.07576,0.64998 -2.86323,4.07003 -2.66744,5.10375 0.0817,0.43144 -1.27527,3.54402 -3.01552,6.91684 l -3.16409,6.1324 z m -115.30115,-2.77783 c 0.0307,-0.74557 0.18237,-0.89722 0.38667,-0.38667 0.18487,0.462 0.16214,1.014 -0.0505,1.22667 -0.21267,0.21266 -0.36393,-0.16534 -0.33614,-0.84 z m 28.13199,-7.9046 c -0.36438,-0.68085 -0.66251,-2.69685 -0.66251,-4.48 0,-4.2139 -1.45399,-5.80779 -5.28,-5.78802 -2.8776,0.0148 -7.16007,1.6665 -9.89105,3.81469 -0.90287,0.71019 -1.83457,1.29126 -2.07046,1.29126 -0.23589,0 -0.78,-2.08954 -1.20912,-4.64342 -0.78561,-4.67542 -3.17063,-10.7153 -5.05229,-12.7945 -1.55425,-1.71743 -3.78206,-1.38814 -5.39828,0.79792 -2.04997,2.77274 -3.56021,2.48646 -5.08661,-0.96422 -0.90744,-2.05143 -1.22044,-3.94555 -1.08401,-6.56 l 0.19182,-3.67578 2.87884,-0.20456 c 4.10564,-0.29173 5.12116,-1.45662 5.12116,-5.87444 0,-3.78241 -1.37987,-8.61874 -3.8284,-13.41825 l -1.42625,-2.79568 1.50732,-1.17403 c 2.39469,-1.86517 8.94226,-5.01304 10.42715,-5.01304 0.74545,0 1.98974,0.44433 2.76509,0.98741 1.27419,0.89248 1.37134,1.35475 1.01041,4.80794 -0.32947,3.1522 -0.19794,4.04306 0.75186,5.09259 2.1213,2.344 7.78978,1.11934 10.44536,-2.25669 1.85898,-2.36332 1.74594,-3.92374 -0.53254,-7.35125 -1.05299,-1.584 -1.91575,-3.35416 -1.91726,-3.9337 -0.005,-1.87971 4.16374,-4.86434 7.98998,-5.72062 3.33651,-0.74668 3.68502,-0.71237 4.87745,0.48006 1.62168,1.62167 5.02991,11.31102 5.04126,14.33194 0.0129,3.445 -1.21498,4.72282 -4.09008,4.25625 -3.35643,-0.54467 -4.86135,1.07531 -4.86135,5.23299 0,4.08309 2.82967,9.71948 5.31905,10.59495 1.54107,0.54196 1.94675,0.36216 3.59988,-1.59553 1.55514,-1.84166 2.05631,-2.09063 3.03208,-1.50629 3.12238,1.86984 6.78335,10.27984 6.47972,14.88525 l -0.19073,2.89301 -4.16,1.02985 c -4.98503,1.23409 -6.51311,2.02011 -8.27037,4.25411 -1.85828,2.36241 -1.67019,3.92282 0.91037,7.55243 1.232,1.73283 2.24,3.65031 2.24,4.26106 0,0.61075 -0.8861,1.85605 -1.96911,2.76735 -2.48572,2.0916 -6.59219,2.31772 -7.60838,0.41896 z m 118.37749,-42.69308 c 0,-0.34339 0.44788,-1.18339 0.99531,-1.86667 0.93848,-1.17139 0.9518,-1.15097 0.2333,0.35768 -0.93299,1.95906 -1.22861,2.32214 -1.22861,1.50899 z m 5.44,-10.46899 c 1.24085,-2.464 2.40009,-4.48 2.57609,-4.48 0.176,0 -0.69524,2.016 -1.93609,4.48 -1.24085,2.464 -2.40009,4.48 -2.57609,4.48 -0.176,0 0.69524,-2.016 1.93609,-4.48 z m -84.03809,-18.68191 c -1.11897,-2.51836 -1.93363,-4.67971 -1.81037,-4.80297 0.12327,-0.12326 1.14365,1.83236 2.2675,4.34584 1.12387,2.51347 1.93853,4.6748 1.81037,4.80297 -0.12817,0.12817 -1.14855,-1.82746 -2.2675,-4.34584 z m -3.21795,-7.2655 c -1.07231,-2.35346 -0.86773,-2.85554 0.29175,-0.71601 0.54145,0.99912 0.8647,1.93634 0.71834,2.08271 -0.14637,0.14636 -0.60091,-0.46864 -1.01009,-1.3667 z m 101.06969,-1.25259 c 0,-0.352 0.55186,-1.648 1.22635,-2.88 0.67449,-1.232 1.22635,-1.952 1.22635,-1.6 0,0.352 -0.55186,1.648 -1.22635,2.88 -0.67449,1.232 -1.22635,1.952 -1.22635,1.6 z m -77.49365,-1.14626 c 0,-0.82921 8.26265,-16.53583 8.28754,-15.75393 0.0993,3.11904 -5.80189,15.94019 -7.33676,15.94019 -0.52293,0 -0.95078,-0.0838 -0.95078,-0.18626 z M 133.46422,151.77722 c -0.52954,-3.53122 0.2132,-18.08037 0.99336,-19.45838 0.35498,-0.627 0.55025,-0.6825 0.56296,-0.16 0.0317,1.30608 1.60914,0.91412 3.21947,-0.8 0.82672,-0.88 1.87376,-1.6 2.32676,-1.6 0.96671,0 2.39992,4.52124 3.79752,11.9798 1.49554,7.98114 1.39632,8.24865 -3.883,10.47012 -6.93742,2.91916 -6.51067,2.9454 -7.01707,-0.43154 z m 203.30056,-6.97838 c 0.0131,-1.056 0.15648,-1.41052 0.31874,-0.78782 0.16227,0.6227 0.1516,1.4867 -0.0237,1.92 -0.17532,0.4333 -0.30808,-0.0762 -0.29503,-1.13218 z m 0.64,-3.84 c 0.013,-1.056 0.15648,-1.41052 0.31874,-0.78782 0.16227,0.6227 0.1516,1.4867 -0.0237,1.92 -0.17532,0.4333 -0.30808,-0.0762 -0.29503,-1.13218 z m 0.61628,-4.16 c 0,-0.88 0.14527,-1.24 0.32281,-0.8 0.17754,0.44 0.17754,1.16 0,1.6 -0.17754,0.44 -0.32281,0.08 -0.32281,-0.8 z m -203.52,-7.04 c 0,-0.88 0.14526,-1.24 0.3228,-0.8 0.17755,0.44 0.17755,1.16 0,1.6 -0.17754,0.44 -0.3228,0.08 -0.3228,-0.8 z m 0.64,-3.84 c 0,-0.88 0.14526,-1.24 0.3228,-0.8 0.17755,0.44 0.17755,1.16 0,1.6 -0.17754,0.44 -0.3228,0.08 -0.3228,-0.8 z m 0.58947,-2.93333 c 0.0307,-0.74557 0.18237,-0.89721 0.38667,-0.38667 0.18487,0.462 0.16214,1.014 -0.0505,1.22667 -0.21267,0.21267 -0.36393,-0.16534 -0.33614,-0.84 z m 0.69053,-2.82667 c 0,-0.88 0.14526,-1.24 0.3228,-0.8 0.17755,0.44 0.17755,1.16 0,1.6 -0.17754,0.44 -0.3228,0.08 -0.3228,-0.8 z m 0.73024,-2.56288 c 1.21514,-4.06339 4.42775,-13.7895 4.61745,-13.97919 0.12947,-0.12948 0.12482,2.08791 -0.0103,4.92752 -0.25766,5.41279 -1.03203,7.77455 -2.54915,7.77455 -0.49812,0 -1.22974,0.504 -1.62581,1.12 -0.47198,0.73407 -0.6209,0.78821 -0.43218,0.15712 z m 197.88871,-6.01027 c -4.03131,-2.65606 -8.64,-7.63398 -8.64,-9.33222 0,-0.71168 0.76761,-2.668814 1.7058,-4.349192 2.07376,-3.714278 1.75958,-5.768057 -1.35952,-8.887155 -1.47181,-1.471808 -2.73532,-2.138278 -4.05381,-2.138278 -2.27928,0 -2.69247,0.824089 -2.69247,5.370022 0,3.890982 -1.10136,5.856057 -2.9528,5.268435 -0.69039,-0.219123 -2.66542,-1.830086 -4.38894,-3.579923 l -3.13368,-3.181517 0.78727,-5.913024 c 0.80066,-6.013631 2.65058,-11.403993 3.91374,-11.403993 0.38367,0 1.29231,1.008 2.01921,2.24 1.63682,2.774202 4.04304,3.073133 5.15165,0.64 0.40096,-0.88 0.94076,-1.6 1.19956,-1.6 1.47896,0 9.2873,15.029856 11.80354,22.719999 1.30594,3.991236 4.30243,16.449176 3.91763,16.287586 -0.0424,-0.0178 -1.51718,-0.98116 -3.27718,-2.14074 z m -192.9404,-9.02685 c 0,-0.352 0.27917,-1.072 0.6204,-1.6 0.34122,-0.528 0.62039,-0.672 0.62039,-0.32 0,0.352 -0.27917,1.072 -0.62039,1.6 -0.34123,0.528 -0.6204,0.672 -0.6204,0.32 z m 1.2604,-3.109308 c 0,-0.695481 4.45864,-9.370687 4.81609,-9.370687 0.176,0 -0.72539,2.088 -2.00307,4.64 -2.39724,4.788127 -2.81302,5.487365 -2.81302,4.730687 z m 32.59081,-26.810687 c -0.0542,-6.522937 -0.97074,-10.534598 -2.64867,-11.593006 -0.88016,-0.555192 -1.48533,-0.317679 -3.07771,1.207925 l -1.98214,1.899003 -1.22691,-1.596961 c -0.67481,-0.878328 -1.23332,-1.824981 -1.24115,-2.103673 -0.0302,-1.074889 5.72088,-10.235345 6.97926,-11.116745 0.72958,-0.511018 1.32651,-1.513997 1.32651,-2.228842 0,-1.473459 4.03251,-8.979589 5.46101,-10.165135 0.74983,-0.622311 0.93899,-0.597454 0.93899,0.123396 0,1.991177 1.99278,16.816437 3.58178,26.646626 0.9275,5.737921 1.58104,10.506478 1.4523,10.596782 -0.67847,0.475923 -8.7708,4.25063 -9.11262,4.25063 -0.2208,0 -0.42359,-2.664 -0.45065,-5.92 z m 104.18667,-3.232518 c -0.18736,-0.48825 -2.10432,-1.547296 -4.25991,-2.353434 -2.15559,-0.806133 -3.80332,-1.581634 -3.66162,-1.723332 0.1417,-0.141698 1.80708,0.348014 3.70084,1.08825 3.4963,1.366634 5.58247,2.855114 4.92418,3.513399 -0.19956,0.199558 -0.51613,-0.03661 -0.70349,-0.524883 z m -15.93748,-6.644674 c 0.462,-0.184878 1.014,-0.162141 1.22667,0.05053 0.21266,0.212666 -0.16534,0.36393 -0.84,0.33614 -0.74557,-0.03071 -0.89722,-0.182362 -0.38667,-0.386667 z m -2.56,-0.64 c 0.462,-0.184878 1.014,-0.162141 1.22667,0.05053 0.21266,0.212666 -0.16534,0.36393 -0.84,0.33614 -0.74557,-0.03071 -0.89722,-0.182362 -0.38667,-0.386667 z m -2.56,-0.64 c 0.462,-0.184878 1.014,-0.162141 1.22667,0.05053 0.21266,0.212666 -0.16534,0.36393 -0.84,0.33614 -0.74557,-0.03071 -0.89722,-0.182362 -0.38667,-0.386666 z m -3.24,-0.626667 c 0.44,-0.177544 1.16,-0.177544 1.6,0 0.44,0.177544 0.08,0.322807 -0.8,0.322807 -0.88,0 -1.24,-0.145263 -0.8,-0.322807 z m -3.2,-0.64 c 0.44,-0.177544 1.16,-0.177544 1.6,0 0.44,0.177544 0.08,0.322807 -0.8,0.322807 -0.88,0 -1.24,-0.145263 -0.8,-0.322807 z m -4.14782,-0.659655 c 0.6227,-0.162267 1.4867,-0.151596 1.92,0.02371 0.4333,0.175311 -0.0762,0.308076 -1.13218,0.295033 -1.056,-0.01304 -1.41052,-0.156479 -0.78782,-0.318747 z m -7.69218,-0.654888 c 0.968,-0.14664 2.552,-0.14664 3.52,0 0.968,0.146639 0.176,0.266618 -1.76,0.266618 -1.936,0 -2.728,-0.119979 -1.76,-0.266618 z m -21.11234,-4.544429 c -0.6234,-0.395944 -0.62832,-0.937737 -0.023,-2.541262 0.60857,-1.612267 0.6002,-2.207024 -0.04,-2.846968 -1.42347,-1.422862 -6.83511,-0.677291 -13.00685,1.791977 -6.40695,2.563376 -6.39288,2.566591 -7.58412,-1.732379 -1.24625,-4.49736 0.72028,-6.948536 5.57463,-6.948536 2.80952,0 3.7415,-0.291595 5.02081,-1.570909 1.90272,-1.902725 2.02065,-4.379341 0.29091,-6.109091 -1.67767,-1.677666 -2.95324,-1.61516 -7.2581,0.355668 -2.77726,1.271476 -3.85165,1.486411 -4.82531,0.965323 -1.76229,-0.943149 -2.3593,-4.192108 -1.11833,-6.086057 1.19394,-1.822179 9.36873,-4.69051 14.16174,-4.969002 l 3.2,-0.185931 -0.1877,2.4 -0.1877,2.4 h 3.52369 c 3.47078,0 10.19605,-2.009673 10.98224,-3.281761 0.21717,-0.351393 -0.0936,-1.178601 -0.69053,-1.838239 -0.59697,-0.659639 -0.91285,-1.478533 -0.70195,-1.819765 0.73043,-1.181868 6.48448,-2.751988 11.42195,-3.11673 5.26894,-0.38923 5.24671,-0.401801 4.98962,2.821545 -0.12121,1.519748 1.01222,4.067979 2.14619,4.825149 1.13049,0.754852 3.85362,0.563767 6.80491,-0.477509 2.45386,-0.865775 2.89896,-0.864227 4.24046,0.01475 1.74228,1.141584 1.93645,2.983493 0.4692,4.450745 -0.82084,0.820838 -1.7844,0.944225 -4.75187,0.608493 -3.46325,-0.391822 -3.84234,-0.301035 -5.44813,1.304754 -1.48875,1.48875 -1.67684,2.092912 -1.36895,4.397221 0.19631,1.469239 0.54172,3.276652 0.76758,4.016475 0.38761,1.269635 0.12713,1.364566 -4.64102,1.691383 -5.4713,0.375011 -11.3163,2.433113 -12.33945,4.344885 -0.43687,0.816307 -0.24936,1.568027 0.68854,2.760379 l 1.28891,1.638579 -1.463,0.94073 c -1.03716,0.666913 -8.26729,2.50144 -9.10053,2.309111 -0.0234,-0.0054 -0.39901,-0.236255 -0.8348,-0.513032 z m 66.03208,-24.597167 -1.87974,-2.08 2.08,1.879738 c 1.144,1.033856 2.08,1.969856 2.08,2.08 0,0.494439 -0.52808,0.05911 -2.28026,-1.879738 z m -3.56138,-2.88 c -0.79608,-1.015076 -0.77344,-1.037713 0.24164,-0.241636 1.06608,0.836077 1.40511,1.361636 0.87836,1.361636 -0.1329,0 -0.6369,-0.504 -1.12,-1.12 z m -86.31836,-7.515311 c 0,-0.433556 5.19845,-3.019572 5.48798,-2.730045 0.13416,0.134167 -1.04575,0.870515 -2.62202,1.63633 -1.57628,0.765814 -2.86596,1.257987 -2.86596,1.093715 z m 7.04,-3.524689 c 0.528,-0.34122 1.248,-0.620399 1.6,-0.620399 0.352,0 0.208,0.279179 -0.32,0.620399 -0.528,0.34122 -1.248,0.620399 -1.6,0.620399 -0.352,0 -0.208,-0.279179 0.32,-0.620399 z m 6.92,-2.357193 c 0.46199,-0.184877 1.014,-0.16214 1.22667,0.05053 0.21266,0.212667 -0.16534,0.36393 -0.84,0.336141 -0.74557,-0.03071 -0.89722,-0.182362 -0.38667,-0.386667 z m 2.56,-0.64 c 0.46199,-0.184877 1.014,-0.16214 1.22667,0.05053 0.21266,0.212667 -0.16534,0.36393 -0.84,0.336141 -0.74557,-0.03071 -0.89722,-0.182362 -0.38667,-0.386667 z m 2.56,-0.64 c 0.46199,-0.184877 1.014,-0.16214 1.22667,0.05053 0.21266,0.212667 -0.16534,0.36393 -0.84,0.336141 -0.74557,-0.03071 -0.89722,-0.182362 -0.38667,-0.386667 z m 2.56,-0.64 c 0.46199,-0.184877 1.014,-0.16214 1.22667,0.05053 0.21266,0.212667 -0.16534,0.36393 -0.84,0.336141 -0.74557,-0.03071 -0.89722,-0.182362 -0.38667,-0.386667 z m 3.16,-0.626667 c 0.44,-0.177543 1.16,-0.177543 1.6,0 0.44,0.177545 0.08,0.322807 -0.8,0.322807 -0.88,0 -1.24,-0.145262 -0.8,-0.322807 z m 3.53218,-0.659654 c 0.6227,-0.162268 1.4867,-0.151596 1.92,0.02371 0.4333,0.175311 -0.0762,0.308075 -1.13218,0.295032 -1.056,-0.01304 -1.41052,-0.156478 -0.78782,-0.318747 z m 4.79528,-0.6491328 c 0.7961,-0.1530836 1.9481,-0.1472717 2.56,0.012915 0.6119,0.1601868 -0.0395,0.2854374 -1.44746,0.278334 -1.408,-0.0071 -1.90864,-0.1381664 -1.11254,-0.291249 z m 7.67254,-0.6503262 c 1.144,-0.1419691 3.016,-0.1419691 4.16,0 1.144,0.1419692 0.208,0.2581258 -2.08,0.2581258 -2.288,0 -3.224,-0.1161566 -2.08,-0.2581258 z"
         style="fill:#37abc8;stroke-width:0.64" />
      <path
         id="path34"
         d="m 40.625779,577.18314 c -1.767823,-1.01403 -3.541708,-2.52333 -3.941966,-3.354 -1.989787,-4.12948 -1.660691,-4.96596 2.7153,-6.90168 3.273416,-1.44798 5.065857,-4.28318 4.180341,-6.61227 -0.31692,-0.83356 -1.621967,-2.43374 -2.900104,-3.55596 -4.253756,-3.73484 -7.845371,-2.48398 -12.274621,4.27494 l -1.355273,2.06811 -2.086642,-5.17647 c -1.147652,-2.84707 -1.977779,-5.24795 -1.844726,-5.33531 6.729202,-4.41793 11.441915,-9.24158 11.441915,-11.71124 0,-1.48816 -1.446466,-2.49262 -5.367116,-3.72705 -1.182823,-0.37242 -1.182823,-0.40743 0,-1.73956 2.00505,-2.25814 7.340314,-6.29382 8.320587,-6.29382 0.510976,0 1.090928,0.86199 1.307075,1.94273 0.442281,2.21141 2.222197,3.44039 4.113349,2.84016 0.707049,-0.22441 4.897586,-3.4341 9.312303,-7.13264 l 8.026759,-6.72463 2.983522,1.84119 c 4.102428,2.5317 4.196252,4.02838 0.392287,6.25766 -4.215719,2.47058 -5.408765,3.85184 -5.408765,6.26207 0,2.57207 2.267447,5.18643 5.392827,6.21789 3.071781,1.01378 5.26972,-0.1106 7.727173,-3.95293 1.056,-1.6511 2.352,-3.01656 2.88,-3.03436 1.083354,-0.0365 3.865376,1.63003 6.72,4.02556 2.255136,1.89246 2.621408,1.14522 -4.957357,10.11361 -3.078547,3.64303 -6.052294,7.57705 -6.608333,8.74226 -0.922828,1.93386 -0.921772,2.25472 0.0121,3.68 0.628768,0.95962 1.63408,1.56143 2.608333,1.56143 0.904135,0 1.585248,0.37121 1.585248,0.86397 0,1.27259 -3.395014,5.73725 -5.323629,7.00093 -2.298649,1.50613 -3.427993,1.37247 -3.887948,-0.46015 -1.655586,-6.59637 -9.982439,-3.35923 -17.419403,6.77194 -1.25292,1.70682 -2.469507,3.10061 -2.703529,3.09731 -0.23402,-0.003 -1.871892,-0.83567 -3.639715,-1.84969 z m 31.054225,-8.06431 c 0.82672,-0.88 1.647123,-1.6 1.823123,-1.6 0.176,0 -0.356403,0.72 -1.183123,1.6 -0.82672,0.88 -1.647123,1.6 -1.823123,1.6 -0.176,0 0.356403,-0.72 1.183123,-1.6 z M 314.50943,553.31575 c -5.07463,-7.62269 -9.70543,-12.67692 -11.61487,-12.67692 -0.73742,0 -2.09191,0.89269 -3.00998,1.98374 -0.94086,1.11816 -2.0563,1.83521 -2.55634,1.64333 -1.95876,-0.75165 -6.64759,-9.29438 -5.64931,-10.29266 0.20593,-0.20592 1.47841,-0.37441 2.82775,-0.37441 7.17645,0 6.50888,-8.00635 -1.49005,-17.87023 l -3.33311,-4.11022 2.66156,-2.36193 c 3.11434,-2.76373 7.75209,-4.31189 10.26721,-3.42737 1.38151,0.48585 1.80166,1.18711 2.33609,3.89909 1.21943,6.18799 5.071,8.11688 10.58776,5.30243 5.29691,-2.70228 5.71782,-6.65353 1.19922,-11.25764 -2.01121,-2.04928 -2.54913,-3.04976 -2.38599,-4.43773 0.19211,-1.63434 0.67188,-1.93992 5.4539,-3.4739 l 5.24327,-1.68192 1.70855,4.81272 c 0.9397,2.647 2.64102,6.2704 3.7807,8.05201 2.09546,3.27573 5.62544,6.71469 6.89242,6.71469 0.37949,0 1.81652,-1.18423 3.1934,-2.63163 l 2.50341,-2.63163 1.49295,1.40255 c 1.7706,1.66339 5.06591,8.70835 4.50095,9.62248 -0.21695,0.35102 -1.61586,0.63823 -3.10868,0.63823 -5.60524,0 -5.57544,2.28628 0.18171,13.93772 l 4.43193,8.96946 -1.39193,1.27921 c -2.22639,2.04609 -5.7538,3.96862 -7.28625,3.97122 -1.12654,0.002 -1.5588,-0.55104 -2.12445,-2.71761 -1.15229,-4.41348 -2.73737,-7.13106 -4.52422,-7.75664 -4.44001,-1.55446 -10.81702,2.49238 -10.81702,6.86445 0,1.8745 0.48842,2.77623 2.55895,4.72443 1.40742,1.32427 2.55942,2.8971 2.56,3.49519 0.002,1.58092 -7.82517,6.91257 -10.14745,6.91257 -0.32972,0 -2.55366,-2.93539 -4.94208,-6.52308 z M 77.440004,472.99469 c -1.209433,-0.43225 -2.56,-2.10691 -2.56,-3.17433 0,-0.44761 1.724634,-1.98501 3.832519,-3.41645 7.009709,-4.7602 6.141875,-8.13934 -3.547271,-13.81226 -1.081664,-0.6333 -0.943379,-0.98455 1.763712,-4.48 3.194656,-4.12498 5.629984,-6.53783 8.320154,-8.24333 1.727149,-1.09498 1.730125,-1.09381 2.620858,1.03714 1.377542,3.29556 2.535021,3.98941 5.19216,3.11247 2.783597,-0.91867 8.945474,-7.45092 9.977114,-10.57681 1.00963,-3.05922 -0.39772,-5.44229 -3.213997,-5.44229 -1.047885,0 -1.905248,-0.30183 -1.905248,-0.67074 0,-1.5084 4.503895,-7.54858 8.028435,-10.76695 l 3.76474,-3.4377 0.96561,1.5177 c 1.83396,2.88253 5.20573,5.62804 7.42254,6.04392 3.09075,0.57983 4.99696,-0.84731 7.34525,-5.49925 2.05743,-4.07574 3.08985,-4.59658 5.61102,-2.83069 1.95862,1.37188 1.83092,3.78732 -0.27566,5.21384 -4.04903,2.74187 -5.98193,5.13016 -5.98193,7.39123 0,2.74488 2.16652,6.06794 5.27322,8.08819 l 2.35211,1.52953 -3.33914,3.68988 c -4.0743,4.50224 -8.12619,11.19797 -8.12619,13.42848 0,2.03943 1.08043,3.18256 3.008,3.18256 0.8096,0 1.472,0.38879 1.472,0.86398 0,1.19065 -3.32894,5.68112 -5.44634,7.34667 -1.89225,1.48844 -2.87366,1.32819 -2.87366,-0.46923 0,-1.26877 -1.90758,-3.26142 -3.12218,-3.26142 -2.64222,0 -8.49727,4.82691 -12.6149,10.39973 l -2.718868,3.67973 -1.367526,-2.21271 c -4.266298,-6.90301 -10.711309,-7.90022 -14.148717,-2.18917 -2.611655,4.33911 -3.302234,4.81801 -5.707815,3.95828 z M 297.64062,437.98455 c -2.14793,-3.47544 -7.06078,-13.41455 -7.07123,-14.30572 -0.006,-0.51869 0.96844,-0.8 2.77143,-0.8 6.49364,0 6.63369,-6.34486 0.32065,-14.52772 -3.24444,-4.2054 -5.02093,-4.45439 -8.22146,-1.15228 -1.1941,1.232 -2.3306,2.23945 -2.52555,2.23877 -1.40735,-0.005 -7.71445,-13.11725 -7.71445,-16.0382 0,-0.25038 1.34395,-0.65676 2.98655,-0.90309 6.49388,-0.97382 14.29345,-6.40525 14.29345,-9.95362 0,-0.71085 -1.20237,-2.59687 -2.67194,-4.19116 -2.33047,-2.52827 -2.59629,-3.11022 -2.08,-4.55372 0.32556,-0.91026 1.58737,-2.18708 2.804,-2.83737 3.07449,-1.64331 4.57859,-0.56876 5.59307,3.99578 1.5129,6.80722 5.91287,8.01641 12.7211,3.49599 1.89974,-1.26136 3.74066,-2.29337 4.09092,-2.29337 0.35026,0 1.25263,1.224 2.00526,2.72 2.22205,4.41671 7.1131,12.25405 8.20562,13.14853 0.55658,0.4557 1.65383,0.66775 2.43833,0.47123 1.22613,-0.30714 1.6978,0.18041 3.36,3.47321 2.23284,4.42323 2.25094,4.50702 0.97364,4.50702 -2.09649,0 -0.17737,7.87186 4.1084,16.85188 1.08438,2.27212 1.95776,4.37795 1.94084,4.67962 -0.0225,0.40159 -32.91538,16.65985 -36.45366,18.0183 -0.27189,0.10439 -1.11563,-0.81545 -1.87497,-2.04408 z m -123.88061,0.29756 c -1.056,-0.5518 -2.01324,-1.04851 -2.1272,-1.1038 -0.11395,-0.0553 0.22295,-0.91929 0.74867,-1.92 0.97088,-1.84805 6.64768,-7.73224 6.96511,-7.21956 1.68493,2.72131 1.66032,2.89331 -1.0139,7.08687 l -2.65268,4.15977 z m 20.16,-27.66505 c 0,-0.5253 0.77114,-1.6533 1.71364,-2.50667 l 1.71365,-1.55156 -1.50639,2.24 c -0.82851,1.232 -1.59965,2.36 -1.71365,2.50667 -0.11399,0.14667 -0.20725,-0.16313 -0.20725,-0.68844 z m -15.20366,-14.31808 c -0.79401,-0.55982 -1.90165,-1.9035 -2.46142,-2.98598 -0.99383,-1.92186 -0.97493,-2.00392 0.80366,-3.48977 3.2336,-2.7014 4.06142,-3.00614 4.06142,-1.49513 0,0.73386 0.44928,2.20312 0.99841,3.26501 2.12283,4.10512 -0.0301,7.08322 -3.40207,4.70587 z m 136.35522,-25.12821 c -0.74721,-0.47497 -7.43317,-14.86366 -7.07369,-15.22313 0.099,-0.099 1.97429,3.40008 4.16742,7.77564 2.19313,4.37556 3.91712,7.95115 3.83111,7.94576 -0.086,-0.005 -0.5022,-0.22962 -0.92484,-0.49827 z m -84.51156,-10.45741 c -0.44,-0.44579 -0.80161,-1.54492 -0.80357,-2.44252 -0.0179,-8.15898 -5.72859,-10.3933 -15.24157,-5.96324 -1.99917,0.93099 -3.88332,1.71039 -4.18699,1.73198 -0.30367,0.0216 -1.04728,-1.54474 -1.65246,-3.48074 -2.23607,-7.15326 -5.89673,-12.31916 -9.34245,-13.18398 -1.57355,-0.39494 -2.10105,-0.13446 -3.86863,1.91034 l -2.04665,2.36762 -1.92471,-2.33501 c -2.07359,-2.51563 -3.7287,-7.28461 -3.0983,-8.92739 0.299,-0.77919 0.90773,-0.91533 2.6398,-0.59039 1.61232,0.30247 2.72774,0.11006 3.93047,-0.678 1.59864,-1.04747 1.66306,-1.30253 1.34134,-5.31059 -0.26667,-3.32206 -0.95908,-5.43684 -3.28212,-10.02438 -1.61929,-3.19775 -2.94416,-6.00045 -2.94416,-6.22821 0,-0.22776 1.76082,-1.58993 3.91293,-3.02706 2.8108,-1.87698 4.57738,-2.61295 6.272,-2.61295 3.12567,0 3.89507,0.91853 3.89507,4.65007 0,3.95395 0.74331,5.31354 3.38091,6.18402 3.03616,1.00203 8.14033,-0.61019 10.38776,-3.28111 2.16703,-2.57538 1.81382,-4.84316 -1.2893,-8.27795 -1.23165,-1.36329 -2.23937,-3.00925 -2.23937,-3.65768 0,-2.13703 4.11186,-4.73922 8.68973,-5.4993 l 2.60974,-0.4333 0.7968,3.71762 c 1.56386,7.29641 4.51803,13.53381 7.05231,14.89011 2.05203,1.09821 3.39928,0.7753 5.57877,-1.33714 1.32115,-1.28052 2.44178,-1.86134 3.10226,-1.60789 1.43548,0.55085 4.30063,7.05669 4.05367,9.2046 -0.18715,1.62761 -0.42363,1.76795 -2.97917,1.76795 -5.46668,0 -6.52871,4.20642 -3.04875,12.07524 0.86796,1.96259 2.4668,4.86004 3.55299,6.43876 l 1.97489,2.8704 -2.73162,0.69182 c -10.82783,2.74228 -13.40536,8.16322 -6.86209,14.43206 1.03975,0.99616 1.89047,2.32667 1.89047,2.9567 0,2.26064 -5.92053,4.63006 -7.52,3.00954 z m 63.16731,-32.61928 c -1.08412,-2.14763 -1.86551,-4.01037 -1.73644,-4.13945 0.12907,-0.12907 1.15324,1.62807 2.27593,3.90476 1.12268,2.2767 1.90409,4.13945 1.73644,4.13945 -0.16765,0 -1.19182,-1.75715 -2.27593,-3.90476 z M 173.12328,303.08803 c -0.92267,-2.92079 -2.14155,-5.8232 -2.70861,-6.44979 -0.98465,-1.08802 -1.10269,-1.07405 -2.62419,0.31067 l -1.59317,1.44993 1.48559,-2.05821 1.4856,-2.05821 -4.80718,-15.86179 c -4.61779,-15.23692 -4.75427,-15.87063 -3.46424,-16.0861 0.73861,-0.12337 2.55349,-1.04056 4.03306,-2.0382 3.01309,-2.03163 2.91678,-2.11459 3.74128,3.22251 0.98014,6.34465 4.89968,13.44 7.42438,13.44 0.72087,0 2.14645,-0.89472 3.16798,-1.98826 1.15404,-1.23541 2.23155,-1.84466 2.84567,-1.609 1.39766,0.53633 2.97163,4.64881 3.07927,8.04556 l 0.0913,2.88049 -2.35732,-0.18975 c -3.69864,-0.29773 -5.00268,0.73643 -5.00268,3.96731 0,3.7176 1.58275,8.87967 4.19616,13.6856 l 2.17077,3.99196 -1.74346,0.35714 c -1.96878,0.4033 -5.83807,1.50062 -6.98304,1.98039 -0.48562,0.20348 -1.3646,-1.59701 -2.43716,-4.99225 z m -11.82418,1.67881 c 0.0105,-0.3344 1.19296,-1.904 2.62768,-3.488 l 2.60857,-2.88 -2.10155,2.88 c -2.77628,3.80465 -3.15799,4.22938 -3.1347,3.488 z m 67.88821,-64.52691 c -0.51564,-0.62131 -0.6625,-1.9371 -0.4153,-3.72113 0.50919,-3.67489 -0.6349,-5.74533 -3.73879,-6.76605 -2.99806,-0.98591 -6.20653,-0.27607 -11.10352,2.45655 -1.84267,1.02825 -3.49867,1.86954 -3.68,1.86954 -0.18133,0 -0.32969,-0.66539 -0.32969,-1.47865 0,-1.94737 -2.71721,-8.82562 -4.53072,-11.46893 -3.26464,-4.7584 -5.5287,-5.37885 -8.63643,-2.36673 l -2.02807,1.96569 -1.34557,-1.71062 c -1.4937,-1.89893 -2.23425,-4.8897 -1.91148,-7.71968 0.19666,-1.7242 0.38566,-1.84599 2.56986,-1.65587 3.27282,0.28488 4.843,-0.75643 5.64789,-3.74557 0.93464,-3.47097 -0.38493,-10.50411 -2.87382,-15.31708 -0.58633,-1.13383 -0.97281,-2.1447 -0.85886,-2.24637 0.11396,-0.10167 1.72871,-0.5059 3.58834,-0.8983 4.59414,-0.9694 8.06106,-2.84175 10.02178,-5.41239 2.0717,-2.71614 2.06681,-4.61596 -0.0198,-7.6867 -1.14647,-1.68719 -1.53793,-2.9123 -1.27072,-3.97692 0.41225,-1.64257 3.29431,-3.48188 5.45583,-3.48188 1.14859,0 1.31178,0.40066 1.31178,3.22056 0,6.47154 2.87361,9.51384 7.02851,7.4411 l 1.81601,-0.90594 2.95843,6.71646 c 2.70744,6.14666 2.86693,6.78335 1.88004,7.50499 -1.49793,1.09532 -0.87249,7.58219 1.1147,11.56113 1.48717,2.97777 4.37924,5.17309 5.99706,4.55227 0.55993,-0.21486 1.64679,1.52694 3.26575,5.2337 1.33458,3.05565 2.69998,5.92269 3.03421,6.3712 0.72744,0.97614 0.85073,0.8642 -2.91977,2.65084 -3.69125,1.74908 -6.25494,4.65185 -6.25494,7.08224 0,1.13641 0.84565,2.82252 2.27162,4.52929 2.67026,3.19609 2.66194,4.89097 -0.0316,6.44528 -2.98732,1.72383 -5.098,2.06012 -6.0127,0.95797 z m -21.77677,-5.89442 c 0.0307,-0.74557 0.18236,-0.89722 0.38666,-0.38667 0.18487,0.462 0.16214,1.014 -0.0505,1.22667 -0.21266,0.21266 -0.36393,-0.16534 -0.33614,-0.84 z m 59.84841,-9.42553 c -1.02359,-2.53063 -3.97525,-9.57772 -6.55925,-15.66022 -2.584,-6.08249 -5.88097,-14.07449 -7.32658,-17.76 -1.44561,-3.6855 -2.88594,-6.70092 -3.20075,-6.70092 -0.3148,0 -0.57236,-0.432 -0.57236,-0.96 0,-1.31547 0.38315,-1.22105 2.93095,0.72225 2.95918,2.25708 6.94731,2.42415 8.61793,0.36101 0.64953,-0.80213 1.3491,-2.81401 1.55459,-4.47084 0.63052,-5.08345 1.15626,-6.21242 2.89304,-6.21242 2.04383,0 3.34256,2.43088 2.49281,4.6659 -0.33292,0.87566 -1.34802,2.47475 -2.25575,3.55354 -1.43303,1.70306 -1.61319,2.41063 -1.36765,5.37153 0.23166,2.79347 0.66968,3.80926 2.4223,5.61751 1.17673,1.21407 3.09627,2.52317 4.26564,2.9091 1.16938,0.38593 2.12614,0.80689 2.12614,0.93547 0,0.12858 -0.55326,1.18625 -1.22945,2.35037 -1.70162,2.92946 -4.47072,11.68914 -4.93652,15.61608 -0.46028,3.88037 0.45038,6.0205 2.56182,6.0205 0.80895,0 1.63985,0.16904 1.84646,0.37565 0.40173,0.40172 -1.27477,6.68765 -1.98042,7.42549 -0.23204,0.24262 -1.25937,-1.62938 -2.28295,-4.16 z m 6.07159,-0.81447 c 0.0307,-0.74557 0.18236,-0.89722 0.38666,-0.38667 0.18488,0.462 0.16214,1.014 -0.0505,1.22667 -0.21266,0.21266 -0.36393,-0.16534 -0.33614,-0.84 z m 31.52742,-8.62472 c -0.47741,-0.47741 -0.0426,-1.85047 1.46951,-4.64 3.94451,-7.27705 5.83395,-15.70454 3.94454,-17.59395 -0.4224,-0.4224 -1.5744,-0.768 -2.56,-0.768 -1.59911,0 -1.78988,-0.22389 -1.77234,-2.08 0.0221,-2.3439 2.52004,-8.92104 3.50034,-9.2167 0.352,-0.10617 1.072,0.73616 1.6,1.87184 1.31208,2.82214 3.30343,3.016 5.09765,0.49625 1.75447,-2.46392 4.09285,-8.26297 5.14552,-12.76055 l 0.80728,-3.44917 1.99477,2.28882 c 1.09713,1.25884 2.5267,2.37896 3.17683,2.48916 1.00308,0.17002 -0.3439,3.20405 -8.89705,20.04035 -5.5435,10.912 -10.53943,20.76662 -11.10205,21.89916 -1.12383,2.26223 -1.40137,2.42642 -2.405,1.42279 z m 11.84953,-56.32496 c -4.95666,-2.515 -6.34752,-6.74551 -3.46162,-10.52911 2.33006,-3.05487 2.5776,-4.88404 1.06279,-7.85332 -3.60256,-7.06158 -9.44023,-6.87697 -10.10194,0.31947 -0.63852,6.94421 -1.59719,7.53306 -5.59637,3.43752 l -2.44944,-2.50845 2.3891,-5.56242 c 2.8846,-6.71606 4.11574,-12.90605 3.03755,-15.27241 -0.45536,-0.99942 -1.54286,-1.83348 -2.84254,-2.18008 -1.91181,-0.50985 -2.08909,-0.76178 -1.9316,-2.74478 0.20633,-2.59802 1.98894,-8.26511 2.59803,-8.25936 0.23571,0.002 0.91916,0.86623 1.51879,1.92 2.10132,3.6928 4.94277,1.7869 7.14587,-4.79304 0.58726,-1.75394 1.24603,-4.70594 1.46394,-6.559998 0.21791,-1.854054 0.59433,-3.371008 0.83652,-3.371008 0.24217,0 1.10148,0.703776 1.90956,1.563943 2.25502,2.400352 5.51127,3.752343 7.05177,2.927885 1.91517,-1.02496 2.58211,-2.752884 2.58211,-6.689754 0,-3.346278 0.0943,-3.562073 1.55642,-3.562073 1.01806,0 2.05708,0.703123 3.00386,2.032748 l 1.44745,2.032743 -1.72386,3.08759 c -0.94813,1.69817 -1.72387,4.052224 -1.72387,5.231224 0,3.15039 4.10023,8.32667 9.45449,11.93569 l 1.42423,0.96 -1.57127,3.24933 c -1.95791,4.0489 -2.87157,7.92579 -2.8918,12.27067 -0.0199,4.27879 1.56648,6.1742 4.84705,5.79122 1.53132,-0.17878 2.1773,0.003 2.1773,0.61401 0,1.93014 -1.49418,9.75393 -1.80368,9.44442 -0.18285,-0.18284 -0.90189,0.17219 -1.59789,0.78896 -0.69599,0.61677 -1.3685,0.83339 -1.49447,0.48139 -0.64176,-1.79328 -2.91977,-4.89229 -3.86199,-5.25385 -2.58166,-0.99067 -6.72213,6.81644 -8.8111,16.61385 -0.43043,2.01878 -0.50767,2.02805 -3.64339,0.43699 z m -169.14217,-13.8278 c -2.09253,-11.76562 -4.63159,-18.76919 -6.80455,-18.76919 -0.34615,0 -1.88682,1.15909 -3.42371,2.57574 l -2.79435,2.57574 0.92115,-4.65574 c 0.50662,-2.56065 1.08758,-5.58792 1.29101,-6.72726 0.30802,-1.72517 0.5979,-2.01429 1.73376,-1.7292 1.81409,0.4553 3.98578,-1.62308 4.89079,-4.68066 0.93742,-3.1671 0.58654,-10.13581 -0.49941,-9.91862 -1.16461,0.23293 -1.08776,-0.012 2.18907,-6.978517 2.12206,-4.511424 3.25109,-6.25417 3.89235,-6.008096 0.4968,0.190643 1.92481,0.346618 3.17337,0.346618 h 2.27011 l -0.50315,3.36 c -0.73011,4.875609 -0.57958,6.246625 0.84195,7.668145 1.85029,1.85029 5.86068,1.04309 8.85687,-1.78269 2.13834,-2.016707 2.26543,-2.354544 1.96398,-5.220848 -0.17726,-1.685535 -0.52636,-3.851289 -0.77577,-4.81278 -1.04889,-4.043469 0.38817,-5.630099 5.86549,-6.476013 l 2.65427,-0.40992 0.24194,7.83705 c 0.26828,8.690441 1.1401,11.534771 3.64458,11.890621 0.97354,0.13833 2.15281,-0.40892 3.34733,-1.55334 1.01434,-0.9718 1.99996,-1.6112 2.19027,-1.4209 0.67451,0.67451 1.53039,7.68542 1.16267,9.524 -0.35172,1.75859 -0.51322,1.84417 -2.79245,1.4797 -2.11296,-0.33787 -2.55667,-0.17695 -3.50569,1.27143 -0.98049,1.49642 -1.01429,2.42474 -0.34631,9.51191 0.40711,4.3195 0.90109,8.90903 1.09772,10.19896 0.34793,2.28255 0.2656,2.39803 -3.07555,4.31399 -5.34444,3.06474 -5.67305,2.89031 -5.67305,-3.01132 0,-3.02933 -0.30195,-5.29394 -0.768,-5.76 -1.18727,-1.18726 -5.57172,-0.90965 -7.84754,0.49688 -1.12563,0.69569 -2.56956,2.23594 -3.20873,3.4228 -1.19788,2.22432 -1.12501,3.60818 0.38587,7.3286 0.61637,1.51775 0.66407,2.40089 0.17286,3.2 -0.77073,1.25386 -6.12966,4.31532 -8.65401,4.94389 -1.54774,0.38539 -1.71373,0.22601 -2.11514,-2.03098 z m 181.67443,-38.12919 -1.87974,-2.08 2.08,1.87974 c 1.144,1.03386 2.08,1.96986 2.08,2.08 0,0.49444 -0.52808,0.0591 -2.28026,-1.87974 z m -187.74922,-0.85333 c 0.0307,-0.74557 0.18237,-0.89721 0.38667,-0.38667 0.18487,0.462 0.16214,1.014 -0.0505,1.22667 -0.21267,0.21267 -0.36393,-0.16533 -0.33614,-0.84 z m 170.78104,-12.266665 -1.55156,-1.76 1.76,1.551558 c 0.968,0.853363 1.76,1.645363 1.76,1.76 0,0.501939 -0.51827,0.09343 -1.96844,-1.551558 z M 279.98944,68.696202 c -2.74204,-2.99043 -23.73852,-8.765043 -35.36423,-9.726138 -5.10449,-0.421988 -5.2562,-0.480375 -4.22081,-1.62447 0.81431,-0.8998 1.98553,-1.186748 4.84389,-1.186748 5.01649,0 7.13671,-1.922659 7.05764,-6.4 -0.003,-0.176 -0.19548,-1.216808 -0.4275,-2.312906 l -0.42186,-1.992907 6.27171,-0.340989 c 3.44946,-0.187544 7.23489,-0.696379 8.41209,-1.130744 1.82103,-0.671929 2.09712,-1.039855 1.85052,-2.466104 -0.15942,-0.921993 -0.5054,-2.18035 -0.76884,-2.79635 -0.4305,-1.006636 -0.0178,-1.12 4.07705,-1.12 h 4.55604 l -0.40586,2.538051 c -0.37709,2.358183 -0.27557,2.589807 1.43244,3.268366 3.72555,1.480085 3.75829,1.52678 3.75829,5.35988 0,2.814491 0.27172,3.855052 1.18022,4.519584 1.10396,0.807521 1.12859,1.248676 0.3811,6.828705 -0.43951,3.280978 -0.78311,6.901413 -0.76356,8.045413 0.0195,1.144 -0.008,2.049587 -0.0611,2.012423 -0.0532,-0.03718 -0.67741,-0.700947 -1.38723,-1.475066 z m 3.76898,-31.421393 c -0.97081,-1.089916 -1.47167,-2.800089 -1.80207,-6.153077 -0.51209,-5.196944 -0.61347,-5.171668 3.93289,-0.980539 1.88502,1.737716 1.97478,1.995439 1.12,3.215788 -0.51107,0.729671 -0.93364,1.910592 -0.93903,2.624269 -0.0184,2.431346 -0.87258,2.909324 -2.31179,1.293559 z m -65.35841,-8.437131 c 0.616,-0.160977 1.624,-0.160977 2.24,0 0.616,0.160978 0.112,0.292687 -1.12,0.292687 -1.232,0 -1.736,-0.131709 -1.12,-0.292687 z m -1.68458,-3.295918 c 0.35303,-1.765158 0.18682,-2.080326 -1.43813,-2.726987 -1.43423,-0.570764 -3.19523,-0.503343 -8.02722,0.307325 -3.40446,0.57117 -6.6053,1.197885 -7.11298,1.392701 -0.64508,0.247539 -1.0463,-0.261995 -1.33229,-1.691933 -0.22508,-1.125379 -0.87189,-2.384451 -1.43737,-2.797937 -0.86839,-0.634982 -0.30592,-1.074723 3.62002,-2.830152 8.65848,-3.871516 22.18294,-6.852866 34.21255,-7.5418588 l 7.04,-0.4032137 -1.19585,1.3487825 c -1.14955,1.296553 -1.15372,2.542331 -0.0184,5.500903 0.30964,0.806898 -0.0568,1.021429 -1.75726,1.028917 -3.09524,0.01363 -9.77257,1.69275 -12.72862,3.200819 -2.55554,1.303739 -3.23076,2.882824 -1.83115,4.28243 0.99416,0.994158 -1.21703,2.076204 -5.20891,2.548982 l -3.18355,0.377045 0.39917,-1.995823 z m 10.84572,0.349485 c 0.24034,-0.631182 0.59821,-0.986382 0.79525,-0.789333 0.19705,0.197047 4.1e-4,0.713468 -0.43697,1.147602 -0.63208,0.62737 -0.70559,0.553857 -0.35828,-0.358269 z m -18.74896,-1.535913 c 0.6227,-0.162267 1.4867,-0.151596 1.92,0.02371 0.4333,0.175311 -0.0762,0.308076 -1.13218,0.295033 -1.056,-0.01304 -1.41052,-0.156479 -0.78782,-0.318747 z m 24.62782,-5.100345 c 0.44,-0.177544 1.16,-0.177544 1.6,0 0.44,0.177544 0.08,0.322807 -0.8,0.322807 -0.88,0 -1.24,-0.145263 -0.8,-0.322807 z m 4.16,-0.674543 c 0.968,-0.14664 2.552,-0.14664 3.52,0 0.968,0.14664 0.176,0.266618 -1.76,0.266618 -1.936,0 -2.728,-0.119978 -1.76,-0.266618 z"
         style="fill:#2c5aa0;stroke-width:0.64" />
      <path
         sodipodi:nodetypes="ssssscssssssssssssssssssssssssssssssssssssssssssssssssssssssssssssssssssscssssssssssssssscssssssssssssssssssscssssssssssssssssssssssssssscsssssssssssssssssssssssssssssssssssssssssssssssssssssssscssssssssssssssssssssssssssssssssssssssssssscssssssscssssssssssssssssssssssssssssssscsssssssssssssssssssssssssssscsssscssssssssssssssssssssssssssssssssssssssssssssssssssssssssssssssssssssssssssssssssscsssssssssssssscssssssssssssssssssssssssssssssssscssssssssssssssssssssssssssssssssssssssssssssssssssssssssssssscssssssssscssssssssssssssssssssscsssssssssssssssssssssssssssscssssss"
         id="path28"
         d="m 54.42364,620.381 c -0.78436,-2.06302 -1.652626,-2.50295 -3.25132,-1.64736 -1.844038,0.9869 -2.96168,-0.074 -3.512479,-3.33415 -0.634146,-3.75348 -3.721312,-13.0159 -7.033935,-21.10391 -1.576246,-3.84852 -2.865903,-7.56392 -2.865903,-8.25644 0,-1.69797 3.582066,-3.79493 6.487671,-3.79792 2.739631,-0.003 7.818259,3.19088 9.421116,5.92447 1.341502,2.28787 0.637483,3.45835 -3.418987,5.68435 -3.859102,2.11768 -4.467047,3.1489 -3.530097,5.98789 0.766244,2.32174 3.931428,5.4409 5.521184,5.4409 2.088504,0 4.633238,-1.96058 5.345349,-4.11829 0.403067,-1.22131 1.298894,-2.40021 1.990729,-2.61979 1.451914,-0.46082 6.259996,1.67834 7.936758,3.53114 1.08448,1.19834 0.912736,1.55887 -5.022558,10.54385 -3.379987,5.1167 -6.44635,9.30309 -6.814138,9.30309 -0.367789,0 -0.931814,-0.69203 -1.25339,-1.53783 z m 270.63693,-24.37555 c -4.43685,-2.41202 -8.77591,-11.92636 -6.18056,-13.55225 0.44,-0.27564 2.09272,-0.65264 3.6727,-0.83777 2.072,-0.24278 2.93301,-0.65187 3.08907,-1.46772 0.119,-0.62211 -1.38416,-4.61861 -3.34035,-8.8811 -1.95619,-4.26249 -3.4009,-8.0021 -3.21046,-8.31023 0.19043,-0.30813 2.12887,-1.44455 4.30764,-2.52537 5.27325,-2.61591 8.02578,-4.78836 8.50966,-6.7163 0.32227,-1.284 -0.16498,-2.18864 -2.55503,-4.7438 -1.62428,-1.73648 -2.95323,-3.5375 -2.95323,-4.00226 0,-2.24588 4.14301,-5.60982 6.90902,-5.60982 1.80388,0 3.17183,1.87401 3.97098,5.44 0.39188,1.74863 1.17283,3.68797 1.73544,4.30966 1.984,2.19229 6.13069,1.15156 11.16174,-2.80137 2.61636,-2.05569 3.84676,-1.91384 4.98038,0.57416 0.31621,0.69399 1.53945,2.71402 3.00686,4.99078 0.50032,0.77626 1.02902,1.58238 1.55983,2.37595 2.08766,3.12109 3.79575,6.1782 3.79575,6.79358 0,0.61539 -3.35188,5.56452 -7.44862,10.99807 -13.49995,17.90511 -18.19637,23.63917 -19.36142,23.63917 -0.61976,0 -1.80324,-0.72 -2.62996,-1.6 -1.93023,-2.05464 -2.9043,-2.01831 -4.29046,0.16 -1.86695,2.93385 -2.2907,3.09215 -4.72898,1.76662 z M 21.91302,549.43883 c -1.436755,-1.78559 -10.811433,-28.67682 -13.2996696,-38.15007 -2.048251,-7.79811 -2.046251,-9.04993 0.014459,-9.04993 1.2035609,0 1.6895526,0.42592 2.0082476,1.76 0.521798,2.18429 1.41486,3.36 2.552229,3.36 0.479354,0 4.681563,-2.88 9.338242,-6.4 4.656679,-3.52 8.765216,-6.38877 9.130082,-6.37504 0.364866,0.0137 1.620385,1.32547 2.790041,2.91498 4.01671,5.45852 6.924894,5.29238 10.289189,-0.58779 1.102275,-1.92658 2.455197,-3.67596 3.006494,-3.88751 2.28986,-0.8787 4.291807,-0.3185 6.40167,1.79136 3.46429,3.46429 2.798929,5.47384 -2.742063,8.28167 -3.45081,1.74866 -4.435193,3.27355 -3.6811,5.70233 0.892371,2.87415 2.918009,4.87557 6.703218,6.62308 2.581606,1.19184 3.799652,2.10888 3.673204,2.76546 -0.23944,1.24331 -14.463996,13.49146 -15.668497,13.49146 -0.492441,0 -1.198659,-0.87008 -1.569373,-1.93351 -0.370714,-1.06343 -1.174812,-2.20152 -1.786884,-2.52909 -1.593823,-0.85299 -5.420414,1.20421 -9.528693,5.12267 -4.484262,4.27708 -4.295155,6.2638 0.696187,7.314 2.805226,0.59024 2.149983,2.39436 -2.423415,6.67255 -4.427618,4.14182 -4.882864,4.3819 -5.903568,3.11338 z m 351.85675,-6.22176 c -0.35737,-0.66775 -0.64976,-2.25412 -0.64976,-3.52525 0,-2.73367 -2.32233,-5.45299 -4.6569,-5.45299 -3.1548,0 -7.62789,2.12833 -11.05393,5.25953 -3.07841,2.81349 -3.63529,3.09756 -4.57184,2.33211 -1.50627,-1.23112 -9.31536,-17.7767 -8.90045,-18.85793 0.2205,-0.5746 1.33274,-0.89371 3.11504,-0.89371 4.88255,0 5.53659,-2.4571 2.35094,-8.83213 -1.81473,-3.63161 -4.99074,-7.16787 -6.43764,-7.16787 -0.33912,0 -1.69421,1.16707 -3.01131,2.59348 -1.68231,1.82192 -2.71897,2.46906 -3.4846,2.17526 -1.92237,-0.73769 -6.11256,-7.85402 -7.95406,-13.50865 l -1.78701,-5.48726 2.23588,-1.86793 c 5.31899,-4.44364 12.61051,-6.39884 14.98986,-4.01948 0.55298,0.55297 1.19759,2.20716 1.43246,3.67596 0.45378,2.83778 3.15654,6.19862 4.98489,6.19862 3.11934,0 8.66867,-3.73159 8.66867,-5.82917 0,-0.61933 -1.44,-2.92033 -3.2,-5.11332 -1.76,-2.19301 -3.2,-4.31778 -3.2,-4.72171 0,-1.32819 2.68805,-3.65388 6.01213,-5.20167 5.42227,-2.52478 5.39577,-2.54129 10.90441,6.79434 2.70289,4.58066 5.59908,8.77713 6.43599,9.32549 1.80181,1.18059 3.40734,0.56148 5.05159,-1.94797 0.58596,-0.8943 1.33541,-1.62599 1.66544,-1.62599 0.33003,0 2.21255,2.18042 4.18338,4.84538 2.63744,3.56635 3.53102,5.29798 3.38519,6.56 -0.18274,1.58146 -0.4715,1.73947 -3.71813,2.03462 l -3.52,0.32 0.0598,2.24 c 0.0346,1.29717 1.58573,5.44917 3.68516,9.86446 3.39705,7.14428 3.56479,7.71692 2.66345,9.09253 -0.52905,0.80743 -2.4243,1.98443 -4.21165,2.61554 -5.38704,1.90215 -7.01977,4.49091 -4.73641,7.50979 1.45152,1.91908 1.14856,3.32028 -1.58971,7.35257 -2.8619,4.21432 -4.18309,5.053 -5.14088,3.26335 z M 61.688187,537.1052 c -2.124352,-2.12435 -1.789301,-4.10231 0.971685,-5.7363 2.671441,-1.58099 6.460132,-5.08632 6.460132,-5.97696 0,-1.19443 -3.247648,-4.53799 -5.802564,-5.97393 -2.868008,-1.61191 -3.086218,-2.39367 -1.149996,-4.11999 3.334666,-2.97313 11.489175,-12.56935 11.261469,-13.25246 -0.138323,-0.41498 -1.380416,-1.07104 -2.760205,-1.45792 -3.018931,-0.84648 -3.399078,-2.07484 -1.56201,-5.04727 1.421076,-2.29936 8.496359,-8.02154 9.918356,-8.02154 1.086681,0 1.984678,1.20745 2.498893,3.36 0.289702,1.21271 0.829459,1.76 1.735763,1.76 1.63216,0 7.780493,-5.79017 11.166515,-10.51601 1.393581,-1.94501 2.855508,-3.54259 3.24873,-3.55018 0.393229,-0.008 1.483699,1.14785 2.423285,2.56765 0.93958,1.4198 2.70857,3.05844 3.93109,3.64142 3.31701,1.58177 5.20734,0.63824 7.59986,-3.79335 2.52413,-4.67538 4.23149,-5.70184 6.57444,-3.95257 3.98705,2.97676 3.6272,5.49659 -1.23236,8.62958 -2.94817,1.90069 -3.3959,2.46983 -3.5676,4.53497 -0.27713,3.3332 1.37507,6.06949 5.0407,8.34817 1.7356,1.07891 3.15564,2.19506 3.15564,2.48034 0,0.28528 -1.44985,1.87485 -3.22187,3.53237 -3.67344,3.43608 -9.24806,11.94683 -8.72245,13.31654 0.19301,0.50297 1.30343,1.00598 2.46762,1.11779 1.64228,0.15772 2.1632,0.53113 2.32419,1.66601 0.46788,3.2984 -6.87518,11.94114 -9.79,11.52278 -0.76912,-0.11039 -1.74909,-1.15736 -2.42004,-2.58551 -0.62014,-1.32 -1.55971,-2.4 -2.08794,-2.4 -0.860626,0 -11.842188,9.34719 -12.79742,10.89279 -0.732441,1.18511 -2.265369,0.62298 -4.966393,-1.82119 -4.05538,-3.66974 -5.656736,-4.5916 -7.976058,-4.5916 -1.85257,0 -2.376077,0.42291 -4.357261,3.52 -2.029037,3.1719 -2.47417,3.52 -4.501139,3.52 -1.551124,0 -2.750358,-0.50093 -3.863062,-1.61363 z M 263.50668,519.77216 c -0.25667,-0.25666 -0.46667,-0.90826 -0.46667,-1.448 0,-0.72038 0.18933,-0.792 0.712,-0.26933 0.3916,0.3916 0.6016,1.0432 0.46667,1.448 -0.13494,0.4048 -0.45534,0.526 -0.712,0.26933 z m 10.19252,-3.34372 c -0.58256,-0.64372 -1.0608,-1.43572 -1.06276,-1.76 -0.009,-1.55219 -1.43095,-5.4527 -2.30627,-6.32801 -1.56507,-1.56508 -6.07746,-1.24903 -8.82927,0.6184 -1.29676,0.88 -2.49647,1.6 -2.66603,1.6 -0.16956,0 -4.63067,-8.6941 -9.91358,-19.32022 -9.13066,-18.36558 -9.54885,-19.37207 -8.46328,-20.36941 0.6281,-0.57706 5.11879,-2.88689 9.9793,-5.13297 6.92833,-3.20163 9.07119,-3.93875 9.92,-3.41237 3.15703,1.95777 9.7227,12.82238 9.7227,16.08872 0,2.50184 -1.07638,3.34625 -4.26549,3.34625 -4.13396,0 -4.82314,2.5089 -2.1291,7.75079 1.1891,2.31367 5.24098,6.32921 6.38649,6.32921 0.55666,0 1.5225,-0.864 2.14629,-1.92 1.54133,-2.60926 3.49153,-2.47739 6.49461,0.43916 3.11643,3.02664 7.19076,9.3288 8.01858,12.40313 0.81574,3.02939 0.10749,4.96426 -2.67628,7.31144 -4.12015,3.47396 -8.45219,4.45946 -10.35591,2.35588 z M 126.1411,505.12853 c -1.0896,-1.93067 -1.98109,-3.7838 -1.98109,-4.11806 0,-0.33427 1.73267,-3.19813 3.85038,-6.36414 5.73581,-8.57513 10.87964,-12.03015 11.38761,-7.64886 0.10889,0.93923 0.61289,2.05203 1.12,2.47289 0.5071,0.42086 0.92201,1.1329 0.92201,1.58231 0,0.44941 -2.48316,4.59014 -5.51813,9.20163 -3.65457,5.55295 -5.90338,8.38453 -6.6589,8.38453 -0.71493,0 -1.88034,-1.31041 -3.12188,-3.5103 z M 26.880003,490.76847 c -5.748937,-3.45955 -7.828465,-5.7722 -7.92366,-8.81198 -0.07058,-2.25359 0.124195,-2.53431 2.579477,-3.71766 6.17125,-2.9743 7.007501,-5.97591 2.784183,-9.99346 -1.408,-1.33939 -2.56,-2.5661 -2.56,-2.72599 0,-0.56458 9.800765,-12.35492 17.792926,-21.40494 7.903092,-8.94916 8.143072,-9.15502 10.218097,-8.76575 3.209584,0.60212 4.506977,-0.11187 6.172998,-3.39717 2.178305,-4.2955 3.678613,-5.47595 6.328028,-4.97891 2.182595,0.40945 4.163965,2.09342 5.488067,4.66432 1.171424,2.27445 -0.108147,4.43131 -3.712435,6.25774 -1.760947,0.89234 -3.516017,2.20971 -3.900156,2.92747 -1.494502,2.79251 1.650134,7.48633 6.476937,9.66777 4.475718,2.02278 4.851424,3.32998 1.99719,6.94892 -5.691222,7.21602 -11.59469,11.99671 -13.779121,11.15846 -0.552373,-0.21196 -1.19307,-1.24479 -1.423771,-2.29517 -0.813511,-3.70388 -3.77401,-3.23222 -8.854011,1.41061 -5.185779,4.73951 -5.381396,6.47739 -0.893021,7.93363 3.707606,1.20292 3.115333,2.50337 -4.717748,10.35874 -3.989205,4.00055 -7.401798,7.27216 -7.58354,7.27023 -0.181742,-0.002 -2.20244,-1.13001 -4.49044,-2.50686 z M 147.52456,475.36621 c -0.89708,-1.45151 2.4425,-6.73412 7.51457,-11.88669 2.92397,-2.97038 5.63754,-5.40069 6.03012,-5.40069 1.84316,0 0.9295,2.22603 -4.00825,9.76563 -4.85908,7.41949 -5.51182,8.15437 -7.24291,8.15437 -1.0464,0 -2.07849,-0.28468 -2.29353,-0.63262 z m 214.54237,-10.08738 c -4.10172,-8.74676 -5.14083,-11.53154 -4.71597,-12.6387 0.4998,-1.30249 2.55752,-1.21454 3.71331,0.1587 1.17377,1.39461 9.96549,15.61166 10.47465,16.9385 0.41799,1.08927 -1.30407,1.75841 -4.56235,1.77277 -1.88439,0.008 -2.12958,-0.3029 -4.90964,-6.23127 z M 260.56654,459.7831 c -0.34896,-0.42047 -2.08078,-3.63994 -3.84849,-7.15438 -5.41267,-10.76107 -8.2808,-13.12093 -11.62305,-9.56327 -0.86473,0.92046 -2.08157,1.5456 -2.80298,1.44 -2.64356,-0.38697 -8.12554,-9.88408 -7.1591,-12.40258 0.32656,-0.85098 0.92352,-0.98185 2.97925,-0.65312 1.49599,0.23921 3.13104,0.1113 3.91068,-0.30596 2.7073,-1.44889 0.56228,-8.82258 -4.80725,-16.52537 -1.5721,-2.25522 -2.72293,-4.45333 -2.5574,-4.88469 0.46264,-1.20562 5.09318,-4.73633 7.56773,-5.77026 4.67848,-1.95479 9.29408,-0.56631 9.29408,2.79588 0,2.45477 1.11248,6.01801 2.06831,6.62469 1.11792,0.70957 5.18801,0.6642 7.14447,-0.0797 2.39833,-0.91184 4.22722,-3.01146 4.22722,-4.85297 0,-1.04599 -1.02895,-2.72745 -2.88,-4.70638 -3.82787,-4.09229 -3.72087,-5.93357 0.50463,-8.68404 2.42921,-1.58122 8.80975,-3.03036 9.7837,-2.22206 0.41367,0.34333 1.12048,1.98674 1.5707,3.65205 1.20723,4.46554 4.00636,10.41823 6.01319,12.78784 2.30339,2.71978 4.0973,2.66167 6.64431,-0.21523 1.11763,-1.26238 2.39462,-2.17669 2.83776,-2.03179 1.51759,0.49622 5.50654,6.45663 6.22165,9.29659 0.9148,3.63302 0.23708,4.50281 -3.70693,4.75745 -2.70991,0.17496 -3.00755,0.35346 -3.18753,1.91157 -0.21837,1.89053 2.97678,9.27939 6.57179,15.19741 1.2467,2.05229 2.26673,4.00756 2.26673,4.34504 0,0.57472 -6.57479,3.87064 -27.6395,13.8556 -6.55983,3.10945 -8.91882,3.96014 -9.39397,3.38763 z m 88.43587,-20.40272 c -3.78709,-4.1269 -8.97338,-19.32244 -5.95896,-17.45942 1.17222,0.72447 9.67998,16.37208 9.4764,17.42916 -0.32091,1.6664 -2.00274,1.68086 -3.51744,0.0303 z m -215.94619,-6.89576 c -1.26708,-0.6697 -3.21108,-2.251 -4.32,-3.51398 -3.15333,-3.59145 -2.58004,-6.25362 1.88739,-8.76445 3.19385,-1.79505 4.65992,-4.2835 3.82203,-6.48734 -0.81716,-2.14928 -3.71135,-4.28002 -5.81358,-4.28002 -1.96744,0 -2.80059,0.81314 -5.11205,4.98921 -2.29233,4.14151 -3.6354,4.87058 -6.40614,3.47752 -1.21068,-0.6087 -3.04111,-2.31076 -4.06762,-3.78235 l -1.86638,-2.67563 6.35594,-6.28437 c 8.31327,-8.21968 9.85247,-11.87872 5.37365,-12.77448 -2.94375,-0.58876 -3.51372,-1.67741 -2.26067,-4.31801 1.38096,-2.91016 7.05587,-8.22232 8.49008,-7.94739 0.60563,0.11611 1.42627,1.21559 1.82366,2.4433 0.39739,1.22771 1.15971,2.3196 1.69405,2.42643 0.86238,0.17241 6.2609,-5.06267 14.38986,-13.95422 l 2.633,-2.88 2.31678,1.24043 c 3.35015,1.79372 5.44379,3.92999 5.44379,5.55465 0,0.85992 -1.50836,2.987 -3.84,5.41517 -2.112,2.19942 -3.84,4.3918 -3.84,4.87195 0,1.62297 1.91054,3.61401 3.88377,4.04741 2.40677,0.52861 3.79888,-0.58538 6.16562,-4.93385 1.61948,-2.97553 2.26183,-3.37331 4.99061,-3.0905 2.85559,0.29595 8,6.07682 8,8.98976 0,0.38832 -2.09906,2.91979 -4.66458,5.6255 -4.96632,5.23771 -7.12417,8.31178 -7.83575,11.1628 -0.39484,1.58197 -0.20252,1.86258 1.87011,2.72858 3.13565,1.31016 3.02276,3.03936 -0.5119,7.84086 -4.43857,6.02936 -7.63028,7.59512 -8.45394,4.14723 -0.52833,-2.21162 -1.41716,-3.36 -2.60062,-3.36 -1.62761,0 -7.92642,6.56877 -10.57691,11.0302 -2.79511,4.70486 -3.37161,4.95759 -6.9702,3.05559 z m 140.55921,-42.32569 c -0.17924,-0.48405 -1.02762,-2.95855 -1.88531,-5.49888 -2.3533,-6.97012 -6.9813,-12.98121 -9.99434,-12.98121 -0.62239,0 -2.00318,1.08 -3.06842,2.4 -1.9269,2.38774 -1.94594,2.39452 -3.72854,1.32854 -3.16614,-1.89334 -6.76402,-9.86396 -5.40587,-11.97597 0.33197,-0.51623 1.84194,-0.94039 3.60997,-1.01404 3.41637,-0.14232 4.77709,-1.36056 4.77709,-4.27685 0,-2.66138 -2.23196,-8.06693 -5.11241,-12.38168 -1.40993,-2.112 -2.56444,-4.18695 -2.56556,-4.611 -0.001,-0.42405 1.07797,-0.9516 2.39797,-1.17234 5.23807,-0.87593 9.07277,-2.299 10.96952,-4.07083 2.57006,-2.40079 2.59115,-4.65273 0.0705,-7.52361 -3.15558,-3.59401 -2.30751,-7.3014 2.15457,-9.41879 1.20938,-0.57389 2.96044,-1.04343 3.89124,-1.04343 2.39606,0 4.83212,2.64126 4.84293,5.25091 0.005,1.16 0.1799,2.74755 0.3891,3.52789 0.80304,2.99545 5.40133,2.64035 10.53368,-0.81347 2.61904,-1.76248 3.49836,-2.07168 4.2106,-1.48058 0.49513,0.41092 2.34483,3.55945 4.11044,6.99673 1.76561,3.43729 4.34323,7.5368 5.72805,9.11003 3.26625,3.71066 5.73939,8.68418 5.73939,11.542 0,1.3218 1.59476,6.08751 3.82344,11.42583 3.61419,8.65695 3.76306,9.21756 2.72,10.24269 -1.69422,1.66513 -8.57635,5.63797 -9.7666,5.63797 -1.70055,0 -3.29084,-2.2795 -3.89075,-5.57694 -0.72338,-3.97605 -3.09123,-6.23419 -5.95051,-5.67479 -2.68809,0.5259 -4.95974,2.27939 -6.26212,4.83372 -0.93904,1.84174 -0.96901,2.35681 -0.2208,3.7945 0.47615,0.91493 1.61309,2.36171 2.52653,3.21506 2.23462,2.08763 2.09102,3.65157 -0.56535,6.15684 -3.32908,3.13973 -13.34841,6.02324 -14.07842,4.0517 z m -74.81617,-13.42768 c -1.18016,-1.67023 -3.2633,-8.1617 -2.77562,-8.64939 0.42943,-0.42942 4.13733,4.37536 4.87616,6.31863 0.44005,1.15742 0.38249,1.94821 -0.1998,2.74453 -0.76288,1.04331 -0.89087,1.01544 -1.90074,-0.41377 z m -53.68722,-14.00534 c -3.44224,-4.3169 -6.0167,-5.93283 -8.99279,-5.64458 -1.76893,0.17132 -2.24758,0.64567 -3.6109,3.57836 -1.59811,3.43774 -3.17103,4.48109 -6.10834,4.05177 -2.25044,-0.32894 -4.24017,-2.7117 -4.03012,-4.82619 0.14667,-1.47651 1.03104,-2.55175 3.87012,-4.70539 2.024,-1.53534 3.67892,-3.27517 3.6776,-3.86629 -0.001,-0.59111 -0.57731,-2.01772 -1.28,-3.17022 -0.70268,-1.15251 -1.2776,-2.39008 -1.2776,-2.75015 0,-0.36007 3.9621,-5.32111 8.80467,-11.02453 4.84257,-5.70342 11.93618,-14.17519 15.76359,-18.82615 l 6.95891,-8.4563 2.7875,0.38207 c 3.36449,0.46115 4.23471,-0.14383 6.42545,-4.46707 0.88016,-1.7369 1.82742,-2.90698 2.10502,-2.6002 0.68714,0.7594 2.59486,6.60667 2.59486,7.95344 0,0.59819 -0.432,1.44616 -0.96,1.88436 -1.22006,1.01255 -1.2371,4.64772 -0.0327,6.97678 0.9901,1.91462 5.10793,5.82322 6.13497,5.82322 0.96351,0 0.74796,-1.17403 -1.03275,-5.62511 -0.96191,-2.4044 -1.49835,-4.73166 -1.28583,-5.57839 0.41424,-1.65051 3.55059,-3.11228 8.09772,-3.77413 3.45666,-0.50314 3.86024,-0.16569 7.19709,6.01763 2.34733,4.34971 4.09766,10.68813 3.43113,12.42507 -0.27345,0.71264 -1.22368,1.01493 -3.19035,1.01493 -3.34947,0 -4.91927,1.4012 -4.91927,4.39095 0,2.88905 1.40771,5.91832 4.17228,8.97837 2.82941,3.13182 4.45101,3.32702 5.93748,0.71472 1.49907,-2.63442 3.41021,-2.4904 5.82482,0.43894 3.43623,4.16875 6.67803,14.03283 5.29115,16.09983 -0.3184,0.47454 -2.53051,1.40397 -4.91579,2.06539 -4.68311,1.29859 -6.70994,2.66723 -6.70994,4.53099 0,0.64944 -0.23884,1.18081 -0.53076,1.18081 -1.24479,0 -7.35869,-14.71171 -11.70274,-28.16 -1.08017,-3.344 -2.45349,-6.58796 -3.05182,-7.20882 -1.03251,-1.07137 -1.3268,-0.83361 -5.78457,4.6736 -5.20614,6.43179 -6.88696,7.15152 -7.86242,3.36672 -0.29038,-1.12666 -0.83322,-2.23714 -1.2063,-2.46772 -1.5568,-0.96216 -8.47831,5.80767 -9.30488,9.10098 -0.55449,2.20929 0.0601,3.18656 2.28358,3.63126 1.09457,0.21891 2.16232,0.84677 2.37279,1.39524 0.6948,1.81064 -9.79068,16.31297 -11.78776,16.30349 -0.60782,-0.003 -2.47671,-1.72533 -4.15309,-3.82768 z m 143.23523,-43.47436 c -1.13018,-2.18552 -1.28539,-3.51251 -0.34271,-2.9299 1.12784,0.69705 2.59036,4.06007 1.94036,4.4618 -0.33572,0.20748 -1.05466,-0.48187 -1.59765,-1.5319 z m -60.56832,-30.31306 c -0.56158,-0.42881 -1.50238,-2.93965 -2.09067,-5.57965 -1.24532,-5.58852 -4.03213,-10.84552 -6.42953,-12.12856 -1.57837,-0.84472 -1.81104,-0.77492 -3.78078,1.13422 -1.15439,1.11889 -2.60294,2.03434 -3.21899,2.03434 -1.90758,0 -4.22897,-3.22253 -5.6197,-7.8012 -1.24342,-4.09367 -1.26235,-4.4872 -0.28748,-5.97505 0.88541,-1.3513 1.49119,-1.57582 3.99612,-1.48107 2.22635,0.0842 3.16644,-0.18088 3.8223,-1.07782 1.80564,-2.46936 0.45395,-8.40268 -3.29963,-14.48396 -1.27643,-2.06797 -2.22848,-4.23776 -2.11568,-4.82176 0.32644,-1.69001 9.01193,-6.70304 12.24496,-7.06745 4.54009,-0.51173 5.46891,0.37178 5.69106,5.41346 0.16929,3.84214 0.3604,4.38711 1.8261,5.20734 2.54576,1.42465 6.15292,0.44816 9.05136,-2.45028 1.33739,-1.33739 2.43162,-2.86858 2.43162,-3.40265 0,-0.53407 -1.152,-2.5042 -2.56,-4.37808 -1.408,-1.87386 -2.56,-3.59194 -2.56,-3.81795 0,-1.94207 6.8276,-6.80757 8.59899,-6.12782 0.43719,0.16776 4.3354,8.03586 8.66268,17.48465 4.32728,9.4488 8.40966,17.75164 9.07195,18.45076 2.20526,2.32786 4.16004,-0.39753 5.30758,-7.39993 0.20629,-1.25884 0.75861,-2.81332 1.22736,-3.45438 1.31122,-1.79319 4.04577,-0.81152 5.34834,1.91999 0.99042,2.07693 0.98825,2.36004 -0.033,4.3032 -0.60121,1.144 -1.80655,3.05859 -2.67854,4.25464 -3.19086,4.37675 -1.19594,9.49595 5.15128,13.2188 1.06761,0.62619 0.9941,0.93712 -1.0475,4.43108 -1.20763,2.0667 -2.50229,3.85984 -2.87704,3.98476 -0.37474,0.12491 -1.20527,-0.93473 -1.84561,-2.35477 -1.82126,-4.03883 -2.11247,-4.07592 -7.35785,-0.93709 -2.61267,1.56342 -5.41145,2.84258 -6.21951,2.84258 -2.23367,0 -3.79329,-2.02482 -4.25802,-5.52809 -0.49199,-3.70895 -1.89381,-5.99191 -3.67922,-5.99191 -2.99027,0 -7.61193,3.90146 -7.61193,6.42576 0,0.62322 1.008,2.33963 2.24,3.81424 2.59812,3.10975 2.69663,3.72686 0.9495,5.94798 -1.79887,2.28689 -5.18998,4.25883 -9.12567,5.30662 -4.07231,1.08414 -5.59199,1.10281 -6.92489,0.0851 z m -70.29632,-32.93965 c -4.61981,-15.6626 -5.37288,-19.18625 -3.75462,-17.568 1.48374,1.48374 4.19801,0.90618 5.4138,-1.152 0.6238,-1.056 1.62847,-1.92 2.2326,-1.92 2.56674,0 6.01228,7.82016 6.69845,15.20309 l 0.40904,4.40113 -2.48095,1.94528 c -5.93123,4.65062 -6.90912,4.54621 -8.51832,-0.9095 z m 137.76011,-23.00095 c 0.42576,-3.84515 3.59557,-11.83045 5.77443,-14.54679 1.54231,-1.92277 3.62284,-1.99807 3.62284,-0.13112 0,1.0271 -8.02342,16.35271 -9.08789,17.35886 -0.4737,0.44774 -0.56664,-0.35762 -0.30938,-2.68095 z m -146.12757,-7.87905 c -4.56608,-16.84044 -5.27102,-20.94144 -3.67516,-21.38004 0.44,-0.12093 2.31243,-0.49409 4.16096,-0.82924 4.03311,-0.73123 4.29169,-0.52434 7.25244,5.80264 1.4327,3.0616 2.13833,5.65581 2.35247,8.64869 0.35921,5.0205 -0.101,5.6524 -4.33624,5.95395 -2.56622,0.18271 -2.97525,0.43777 -3.91941,2.444 l -1.05418,2.24 z m 23.67629,-18.89029 c -0.55593,-0.66986 -0.67678,-2.06353 -0.3903,-4.50103 0.37928,-3.227 0.27225,-3.67345 -1.24401,-5.18972 -1.47138,-1.47137 -1.99701,-1.61274 -4.64806,-1.25009 -1.71363,0.23442 -4.53224,1.36092 -6.60555,2.64001 -1.98906,1.22712 -3.93306,2.23112 -4.32,2.23112 -0.38695,0 -0.71057,-0.936 -0.71918,-2.08 -0.0358,-4.76861 -4.23299,-15.84 -6.00488,-15.84 -0.44434,0 -1.57772,0.864 -2.51862,1.92 -0.9409,1.056 -2.11961,1.92 -2.61934,1.92 -2.4446,0 -5.3725,-7.52892 -4.57698,-11.76943 0.52876,-2.81851 2.41046,-4.5011 4.45882,-3.98699 3.91809,0.98338 4.5239,-0.87433 3.62512,-11.1164 -0.73683,-8.39655 -0.82045,-8.19767 4.286,-10.19324 4.70727,-1.83957 8.40849,-4.30463 9.25594,-6.16459 0.59629,-1.30871 0.46248,-2.13707 -0.77041,-4.76935 -1.24279,-2.65339 -1.36959,-3.4543 -0.75908,-4.79425 0.94364,-2.07105 4.46408,-4.24136 6.51908,-4.01893 1.55567,0.16838 1.6,0.31199 1.6,5.18372 0,4.22653 0.19502,5.1533 1.24642,5.923 1.46927,1.0756 2.71454,0.77945 7.22388,-1.718 1.84267,-1.02055 3.71518,-1.85554 4.16113,-1.85554 0.50317,0 1.59491,3.07936 2.87725,8.11555 1.13653,4.46356 2.35946,8.40859 2.71762,8.76676 0.44161,0.4416 1.3508,-0.0269 2.82478,-1.45551 3.90424,-3.78414 6.64627,-1.33808 7.23563,6.45464 0.32619,4.31296 0.22333,4.96852 -0.96621,6.15806 -1.03346,1.03346 -1.83502,1.24951 -3.58313,0.96583 -1.97002,-0.31968 -2.34598,-0.15888 -3.00376,1.28479 -0.93588,2.05404 0.0909,7.8881 2.3817,13.5333 0.85336,2.10287 1.42157,4.16218 1.26269,4.57621 -0.15889,0.41404 -1.53293,0.96002 -3.05344,1.21328 -5.39172,0.89807 -10.12819,4.45137 -10.12182,7.5934 0.001,0.74453 0.86427,2.64969 1.91726,4.23369 2.29524,3.45272 2.37486,4.48258 0.48,6.20846 -3.09916,2.82278 -6.65977,3.59921 -8.16855,1.78125 z m 98.77019,-12.09866 c -5.3059,-2.4841 -6.79955,-6.95258 -3.68774,-11.03238 2.62239,-3.43814 3.11615,-5.53613 1.90406,-8.09041 -1.75284,-3.69385 -5.84887,-4.58539 -7.43662,-1.61866 -0.3835,0.7166 -0.94007,3.02054 -1.23682,5.11987 -0.61762,4.36953 -1.42946,5.65053 -3.58104,5.65053 -1.69486,0 -6.64348,-4.11822 -6.64348,-5.52868 0,-0.49485 1.12011,-3.12751 2.48912,-5.85036 2.86962,-5.70737 4.55088,-10.92615 4.55088,-14.12628 0,-1.26392 1.57196,-6.00463 3.62221,-10.92384 1.99222,-4.77996 4.71053,-11.68691 6.04069,-15.34878 1.33017,-3.66186 2.77213,-6.87649 3.20437,-7.14363 1.01546,-0.62758 3.70011,0.39905 5.53273,2.11577 1.8541,1.73683 1.81114,3.82169 -0.16625,8.06936 -1.92813,4.14183 -2.00648,6.08371 -0.31375,7.77644 2.88092,2.88092 5.46273,1.05651 6.11287,-4.31961 0.53544,-4.42763 1.12602,-5.28039 3.65692,-5.28039 1.45877,0 2.69579,0.76273 5.04164,3.10857 3.66547,3.66548 3.899,5.24601 1.53873,10.4141 -1.97517,4.32486 -3.55016,10.32511 -3.55016,13.52509 0,2.16045 0.23464,2.54062 1.93351,3.13285 2.66545,0.92918 3.34008,2.44067 2.58573,5.79331 -1.38771,6.16766 -3.64201,10.74608 -5.29109,10.74608 -0.31541,0 -0.99463,-1.008 -1.5094,-2.24 -0.51476,-1.232 -1.34316,-2.24 -1.84089,-2.24 -2.22806,0 -5.15348,6.47447 -6.93873,15.35666 -0.53276,2.65059 -1.17309,4.21668 -1.7673,4.32232 -0.5125,0.0911 -2.42509,-0.53346 -4.25019,-1.38793 z m 52.97796,-27.17987 c -1.74183,-2.08041 -2.61593,-3.74241 -2.60863,-4.96 0.0284,-4.74543 4.31116,-16.71189 6.2073,-17.34393 0.41406,-0.13802 1.49195,0.91988 2.39531,2.3509 1.20254,1.90494 2.06889,2.60185 3.23445,2.60185 2.01649,0 2.00297,0.37008 -0.29629,8.10967 -2.45676,8.26976 -4.24326,12.37033 -5.3894,12.37033 -0.50773,0 -2.10197,-1.40797 -3.54274,-3.12882 z M 198.78239,139.1636 c -1.17058,-0.85595 -1.32065,-1.87932 -0.99338,-6.77407 0.3994,-5.97356 -5.04654,-6.10354 -12.94048,-0.30886 -1.85878,1.36447 -3.40971,2.09299 -3.74402,1.75868 -0.67095,-0.67095 -2.57462,-17.97733 -2.11051,-19.18678 0.17423,-0.45405 1.51371,-0.91288 2.97662,-1.01963 3.84518,-0.28059 4.68727,-2.26547 3.80292,-8.9638 -0.36258,-2.74628 -1.01722,-5.424568 -1.45475,-5.951761 -1.18778,-1.431181 -2.9194,-1.160256 -4.09993,0.641465 -0.5766,0.879996 -1.60418,1.599996 -2.28353,1.599996 -1.80807,0 -2.56755,-3.53645 -2.57175,-11.975061 -0.004,-8.184352 0.14632,-8.469433 6.00944,-11.391148 4.68194,-2.333114 5.35075,-2.167514 5.84084,1.446214 0.62674,4.621363 3.18583,13.819833 6.11022,21.962715 4.18848,11.66269 4.26891,11.87541 9.00482,23.81681 2.48219,6.25874 4.34567,11.81574 4.14108,12.3489 -0.37523,0.97785 -4.09836,2.83157 -5.68709,2.83157 -0.47203,0 -1.37225,-0.37586 -2.0005,-0.83524 z m 134.99857,-5.79029 c -1.02527,-0.7497 -1.1301,-1.43938 -0.7833,-5.15323 0.42887,-4.59255 3.34188,-12.10737 4.5392,-11.70994 0.44863,0.14892 0.76801,3.17122 0.88234,8.3496 l 0.17918,8.1162 -1.66085,0.63145 c -2.04005,0.77563 -1.74587,0.79744 -3.15657,-0.23408 z M 290.23694,91.093961 c -2.28842,-2.288422 -2.54887,-4.285343 -1.01203,-7.759596 2.30951,-5.221043 1.51409,-7.48791 -3.44541,-9.819155 -1.59472,-0.749606 -2.89949,-1.746541 -2.89949,-2.215405 0,-0.46887 0.4303,-3.707392 0.95622,-7.196722 1.31001,-8.691415 1.25548,-11.417118 -0.25017,-12.506175 -0.99769,-0.721647 -1.28523,-2.018134 -1.61413,-7.278062 l -0.40019,-6.4 1.77414,2.08577 c 2.85065,3.351394 3.23626,2.999975 4.92214,-4.48577 0.21801,-0.968 0.63672,-1.76 0.93047,-1.76 0.29375,0 2.82265,2.664 5.61976,5.92 5.10545,5.943035 25.12852,30.788511 26.07795,32.35863 0.6506,1.075936 -0.79105,4.601369 -1.88164,4.601369 -0.45659,0 -1.46283,-1.02368 -2.23609,-2.274848 -2.86999,-4.643744 -5.72258,-1.48311 -7.3937,8.192102 -0.50184,2.905511 -1.04656,5.64505 -1.21048,6.087866 -0.1821,0.491936 -1.62615,-0.566093 -3.71238,-2.72 -5.18998,-5.358362 -8.1419,-4.69593 -8.1419,1.827091 0,4.733933 -3.02801,6.397958 -6.08307,3.342905 z m -90.19122,-26.98083 c -1.19218,-1.192175 -1.22208,-1.762378 -0.31444,-5.99456 0.67186,-3.132777 0.80416,-3.277156 4.71202,-5.142204 7.92285,-3.781228 15.06066,-4.725783 14.17522,-1.875823 -0.20818,0.670066 -0.55476,1.78917 -0.77017,2.486896 -0.57669,1.867881 1.81513,2.555856 6.39099,1.83829 6.43485,-1.009083 9.315,-3.242177 7.19829,-5.581115 -1.64421,-1.816824 -1.24882,-2.622934 2.00238,-4.082445 2.13333,-0.957686 4.76034,-1.444933 8.80822,-1.633714 l 5.76823,-0.269011 1.11177,2.331414 c 2.4531,5.144185 0.95633,8.187733 -3.9222,7.975449 -4.06388,-0.176837 -5.57503,0.433197 -6.47896,2.615486 -0.83017,2.0042 -0.37751,1.889901 -11.52706,2.910686 -2.288,0.209475 -5.888,0.823525 -8,1.364554 -2.112,0.541031 -4.90285,0.841974 -6.2019,0.668763 -1.76473,-0.235306 -3.30192,0.153201 -6.08,1.536653 -4.24748,2.115204 -5.45802,2.265048 -6.87239,0.850681 z m -15.74411,-5.479642 c -0.0101,-0.129054 -0.70025,-5.562643 -1.53362,-12.074643 -1.1408,-8.914324 -1.33394,-12.027488 -0.7816,-12.598752 0.68507,-0.708547 10.91639,-4.681247 12.05611,-4.681247 0.28463,0 0.51751,1.165091 0.51751,2.589091 0,1.895577 0.42078,3.009874 1.57091,4.16 1.94603,1.946032 2.40162,1.943612 6.65264,-0.03534 1.88295,-0.876564 3.91335,-1.593751 4.512,-1.593751 2.59459,0 3.53574,3.456907 1.45405,5.340808 -0.7761,0.702369 -2.30192,1.059192 -4.52923,1.059192 -2.85906,0 -3.63719,0.278358 -5.2296,1.870769 -2.10595,2.105947 -2.36791,4.221379 -1.00659,8.128766 1.0639,3.053734 0.75984,4.080465 -1.2084,4.080465 -0.83466,0 -3.47466,0.738887 -5.86667,1.641973 -5.34523,2.018048 -6.58388,2.414091 -6.60751,2.11267 z m 78.57458,-36.771797 c -0.20744,-0.207435 -0.22092,-1.339909 -0.0299,-2.516611 0.33235,-2.048013 0.2458,-2.158476 -2.02487,-2.584455 -2.7458,-0.515115 -7.51885,-0.04162 -12.39871,1.22998 l -3.41737,0.890501 -1.22024,-2.00113 c -1.38063,-2.264125 -1.60403,-5.526142 -0.45704,-6.67313 2.84398,-2.8439806 22.92549,3.337795 29.89585,9.202964 1.558,1.310969 1.85806,1.869803 1.22092,2.273797 -0.95426,0.60506 -10.98717,0.759504 -11.56859,0.178084 z"
         style="fill:#c83737;stroke-width:0.64" />
    </g>
  </g>
</svg>
